<?xml version="1.0" encoding="utf-8"?>
<!-- Generator: Adobe Illustrator 23.1.0, SVG Export Plug-In . SVG Version: 6.00 Build 0)  -->
<svg version="1.1" id="图层_1" xmlns="http://www.w3.org/2000/svg" xmlns:xlink="http://www.w3.org/1999/xlink" x="0px" y="0px"
	 viewBox="0 0 750 750" style="enable-background:new 0 0 750 750;" xml:space="preserve">
<style type="text/css">
	.st0{opacity:0.35;fill:#B3B3B3;}
	.st1{opacity:0.1;fill:#B3B3B3;}
	.st2{opacity:0.3;fill:#B3B3B3;}
	.st3{opacity:0.1;}
	.st4{fill:#B3B3B3;}
</style>
<g>
	<path class="st0" d="M465.1,261.4H264c-1.3,0-2.4,1.1-2.4,2.4v255.6c0,1.3,1.1,2.4,2.4,2.4h201.1c1.3,0,2.4-1.1,2.4-2.4V263.8
		C467.5,262.4,466.4,261.4,465.1,261.4z M417.9,443c0,1.3-1.1,2.4-2.4,2.4h-102c-1.3,0-2.4-1.1-2.4-2.4v-11.3c0-1.3,1.1-2.4,2.4-2.4
		h102c1.3,0,2.4,1.1,2.4,2.4V443z M417.9,397.2c0,1.3-1.1,2.4-2.4,2.4h-102c-1.3,0-2.4-1.1-2.4-2.4v-11.3c0-1.3,1.1-2.4,2.4-2.4h102
		c1.3,0,2.4,1.1,2.4,2.4V397.2z M417.9,351.5c0,1.3-1.1,2.4-2.4,2.4h-102c-1.3,0-2.4-1.1-2.4-2.4v-11.3c0-1.3,1.1-2.4,2.4-2.4h102
		c1.3,0,2.4,1.1,2.4,2.4V351.5z"/>
	<g>
		<path class="st1" d="M462.1,236.8L462.1,236.8C384.8,236.2,321,295.1,314,370.7c-18.5-19.1-44.4-31.1-73.1-31.3h0
			c-56.8-0.4-103.2,45.3-103.6,102.1l-0.8,101.4l175.6,1.3l30.1,0.2l265.1,2l1.2-160.9C609.2,304,543.6,237.4,462.1,236.8z"/>
		<path class="st2" d="M216.9,227.4c-3.4,0-6.5,1.1-9,2.9c0.2-1,0.3-2,0.3-3c0.1-8.3-6.6-15.1-15-15.2s-15.1,6.6-15.2,15
			c0,0.3,0,0.6,0,0.9c-1.6-0.6-3.4-1-5.2-1c-8.3-0.1-15.1,6.6-15.2,15c-0.1,8.2,6.4,14.9,14.5,15.2l0,0l44.6,0.3
			c8.3,0.1,15.1-6.6,15.2-15S225.2,227.5,216.9,227.4z"/>
		<path class="st2" d="M596.4,194.2c-3.4,0-6.5,1.1-9,2.9c0.2-1,0.3-2,0.3-3c0.1-8.3-6.6-15.1-15-15.2s-15.1,6.6-15.2,15
			c0,0.3,0,0.6,0,0.9c-1.6-0.6-3.4-1-5.2-1c-8.3-0.1-15.1,6.6-15.2,15c-0.1,8.2,6.4,14.9,14.5,15.2l0,0l44.6,0.3
			c8.3,0.1,15.1-6.6,15.2-15S604.7,194.3,596.4,194.2z"/>
		<g>
			<g class="st3">
				<path class="st4" d="M496.9,497.5c-2.1,0-3.7,1.6-3.7,3.7c0,1.5,0.8,2.7,2,3.3l-0.5,65.1l3.5,0l0.5-65.3
					c1.1-0.6,1.8-1.8,1.8-3.1C500.6,499.1,499,497.6,496.9,497.5z"/>
				<path class="st4" d="M572.3,501.7c0-1.9-1.6-3.6-3.7-3.7c-2.1,0-3.7,1.6-3.7,3.7c0,1.4,0.8,2.6,1.9,3.2l-0.5,65.2l3.5,0
					l0.5-65.2C571.5,504.3,572.2,503.1,572.3,501.7z"/>
			</g>
			
				<rect x="522.7" y="472.2" transform="matrix(7.448311e-03 -1 1 7.448311e-03 8.6828 1045.4733)" class="st1" width="16.5" height="92.3"/>
			<polygon class="st1" points="495.4,509.8 495.2,510.1 485.5,526.3 484.8,526.3 484.9,509.8 			"/>
			<polygon class="st1" points="518.7,510 508.8,526.5 496.3,526.4 500.2,519.8 506,509.9 			"/>
			<polygon class="st1" points="542,510.2 532.1,526.6 519.6,526.5 529.3,510.1 			"/>
			<polygon class="st1" points="565.3,510.4 555.5,526.8 542.9,526.7 552.7,510.3 			"/>
			<polygon class="st1" points="577.2,510.4 577.1,527 566.2,526.9 576,510.4 			"/>
			
				<rect x="522.5" y="497.7" transform="matrix(7.448311e-03 -1 1 7.448311e-03 -17.0149 1070.603)" class="st1" width="16.5" height="92.3"/>
			<polygon class="st1" points="495.2,535.3 495,535.6 485.3,551.8 484.6,551.8 484.7,535.3 			"/>
			<polygon class="st1" points="518.5,535.5 508.6,552 496.1,551.9 500,545.3 505.8,535.4 			"/>
			<polygon class="st1" points="541.8,535.7 531.9,552.1 519.4,552 529.1,535.6 			"/>
			<polygon class="st1" points="565.1,535.9 555.4,552.3 542.7,552.2 552.5,535.8 			"/>
			<polygon class="st1" points="577,536 576.9,552.5 566,552.4 575.8,536 			"/>
			<path class="st1" d="M577.1,527c0,0,0-0.1,0-0.3l0-0.9c0-0.7,0-1.8,0-3.2c0-2.8,0.1-6.9,0.1-12.2l0.1,0.1l-92.3-0.5l0,0l0.1-0.1
				c0,5.6-0.1,11.2-0.1,16.5l-0.1-0.1l65.8,0.6l19.5,0.1l5.3,0l0,0l-5.3,0l-19.5-0.1l-65.8-0.3l-0.3,0l0.1-16.8l0.1,0l92.3,0.8
				l0.1,0l0,0.1c0,5.3-0.1,9.4-0.1,12.2c0,1.5,0,2.5,0,3.2l0,0.7C577.1,526.8,577.1,527,577.1,527z"/>
			<path class="st1" d="M576.9,552.5c0,0,0-0.1,0-0.3l0-0.9c0-0.7,0-1.8,0-3.2c0-2.8,0.1-6.9,0.1-12.2l0.1,0.1l-92.3-0.5l0,0
				l0.1-0.1c0,5.6-0.1,11.2-0.1,16.5l-0.1-0.1l65.8,0.6l19.5,0.1l5.3,0l0,0l-5.3,0l-19.5-0.1l-65.8-0.3l-0.3,0l0.1-16.7l0.1,0
				l92.3,0.8l0.1,0l0,0.1c0,5.3-0.1,9.4-0.1,12.2c0,1.5,0,2.5,0,3.2l0,0.7C576.9,552.3,576.9,552.5,576.9,552.5z"/>
		</g>
	</g>
</g>
</svg>
