<?xml version="1.0" standalone="no"?><!DOCTYPE svg PUBLIC "-//W3C//DTD SVG 1.1//EN" "http://www.w3.org/Graphics/SVG/1.1/DTD/svg11.dtd"><svg t="1567407553447" class="icon" viewBox="0 0 1024 1024" version="1.1" xmlns="http://www.w3.org/2000/svg" p-id="5342" xmlns:xlink="http://www.w3.org/1999/xlink" width="128" height="128"><defs><style type="text/css"></style></defs><path d="M271.959 64.002c-115.277 0-208.875 93.67-208.875 208.95 0 115.385 93.544 208.947 208.933 208.947h144.895c35.347 0 63.918-28.762 63.918-64.106V272.894c-0.014-115.366-93.5-208.892-208.871-208.892z m144.916 353.791v0.025a0.932 0.932 0 0 1 0.044 0.145H272.017a145.242 145.242 0 1 1 144.858-145.065v144.895z m0.022 124.434h-144.88c-115.37 0-208.897 93.515-208.897 208.886 0 115.276 93.562 208.893 208.857 208.893 115.37 0 208.857-93.53 208.857-208.9V606.21c-0.018-35.352-28.593-63.984-63.937-63.984z m-0.022 208.875a144.722 144.722 0 0 1-88.483 133.505c-17.827 7.539-36.796 11.278-56.375 11.278-19.565 0-38.52-3.739-56.354-11.285a144.88 144.88 0 0 1 56.354-278.433h144.92a0.094 0.094 0 0 0-0.043 0v144.92z m334.227-208.875H606.207a63.965 63.965 0 0 0-63.98 63.98v144.895c0 115.37 93.515 208.896 208.886 208.896 115.276 0 208.893-93.609 208.893-208.885-0.004-115.37-93.534-208.886-208.904-208.886zM884.686 807.45a144.927 144.927 0 0 1-278.519-56.354V606.167h144.92a144.996 144.996 0 0 1 133.6 201.282zM606.207 481.9h144.895c115.37 0 208.896-93.562 208.896-208.95 0-115.277-93.609-208.922-208.885-208.922-115.37 0-208.886 93.497-208.886 208.867V417.79c0 35.348 28.632 64.11 63.98 64.11z m-0.04-209.005A144.95 144.95 0 1 1 751.102 417.96H606.167a0.52 0.52 0 0 1 0-0.144v-144.92z" p-id="5343"></path></svg>