<?xml version="1.0" standalone="no"?><!DOCTYPE svg PUBLIC "-//W3C//DTD SVG 1.1//EN" "http://www.w3.org/Graphics/SVG/1.1/DTD/svg11.dtd"><svg t="1568261192244" class="icon" viewBox="0 0 1024 1024" version="1.1" xmlns="http://www.w3.org/2000/svg" p-id="4122" xmlns:xlink="http://www.w3.org/1999/xlink" width="128" height="128"><defs><style type="text/css"></style></defs><path d="M744.727273 325.818182V279.272727c0-102.4-83.781818-186.181818-186.181818-186.181818H279.272727C176.872727 93.090909 93.090909 176.872727 93.090909 279.272727v465.454546c0 102.4 83.781818 186.181818 186.181818 186.181818h279.272728v-46.545455H279.272727c-79.127273 0-139.636364-60.509091-139.636363-139.636363V279.272727c0-79.127273 60.509091-139.636364 139.636363-139.636363h279.272728c79.127273 0 139.636364 60.509091 139.636363 139.636363v46.545455h46.545455z" p-id="4123"></path><path d="M512 418.909091H279.272727c0-79.127273 60.509091-139.636364 139.636364-139.636364s139.636364 60.509091 139.636364 139.636364h-46.545455c0-51.2-41.890909-93.090909-93.090909-93.090909s-93.090909 41.890909-93.090909 93.090909h186.181818z" p-id="4124"></path><path d="M418.909091 279.272727c79.127273 0 139.636364 60.509091 139.636364 139.636364s-60.509091 139.636364-139.636364 139.636364v-32.581819-13.963636c51.2 0 93.090909-41.890909 93.090909-93.090909s-41.890909-93.090909-93.090909-93.090909V279.272727zM372.363636 512h46.545455v139.636364H372.363636zM372.363636 698.181818h46.545455v46.545455H372.363636z" p-id="4125"></path><path d="M837.818182 330.472727l83.781818 37.236364c23.272727 9.309091 32.581818 37.236364 23.272727 60.509091L754.036364 837.818182c-4.654545 9.309091-9.309091 13.963636-18.618182 18.618182L609.745455 930.909091l-27.927273-139.636364c0-9.309091 0-18.618182 4.654545-27.927272l190.836364-409.6c9.309091-23.272727 37.236364-32.581818 60.509091-23.272728z m0 51.2c-13.963636-4.654545-23.272727 0-32.581818 9.309091l-176.872728 381.672727c0 4.654545-4.654545 9.309091 0 13.963637l9.309091 79.127273 65.163637-41.89091 9.309091-9.30909 176.872727-381.672728c4.654545-13.963636 0-23.272727-9.309091-32.581818l-41.890909-18.618182z" p-id="4126"></path></svg>