<svg t="1595832726935" class="icon" viewBox="0 0 1024 1024" version="1.1" xmlns="http://www.w3.org/2000/svg" p-id="4900" width="200" height="200"><path d="M511.999488 66.861804c-245.445108 0-445.138196 199.693088-445.138196 445.138196 0 245.445108 199.693088 445.138196 445.138196 445.138196 245.445108 0 445.138196-199.694111 445.138196-445.138196C957.137685 266.553868 757.444597 66.861804 511.999488 66.861804zM261.608741 427.88423c0 48.143487 85.310991 79.007425 194.748473 83.245959-16.953114 17.225313-29.885658 37.058011-37.926798 59.065234-90.473571-11.627828-156.820652-47.110971-156.820652-89.49529L261.609765 427.88423zM261.608741 521.780761c0 41.188074 62.543452 69.715805 148.996452 79.823-0.86981 6.630001-2.337231 13.150508-2.337231 19.942191 0 14.615882 2.771113 28.581965 6.792707 42.111097-88.73395-12.062733-153.450904-47.165206-153.450904-89.060385L261.609765 521.780761zM481.570455 762.390747c-89.060385 0-165.840072-22.660092-200.399169-55.153134-12.606109-11.790534-19.561521-24.886807-19.561521-38.742373l0-52.816926c0 44.231387 71.780837 73.954339 168.230516 81.833797 1.901303 3.260254 3.967358 6.574742 6.085602 9.726525 14.508435 21.626553 34.069957 40.318264 57.815777 54.663994C489.666854 761.954819 485.753731 762.390747 481.570455 762.390747zM481.570455 480.701157c-121.44598 0-219.960691-42.00365-219.960691-93.89653l0-31.298843c0-51.838645 98.514711-93.89653 219.960691-93.89653 121.500215 0 219.960691 42.057885 219.960691 93.89653l0 31.298843c0 25.321712-23.74582 48.251957-61.944817 65.097624-9.781784-1.195222-19.507286-2.499937-29.668717-2.499937-42.655496 0-82.050738 11.410887-114.599038 30.646997C490.645135 480.266251 486.243895 480.701157 481.570455 480.701157zM732.720496 648.061862l-222.569098 0 0-44.556798 222.569098 0L732.720496 648.061862z" p-id="4901"></path></svg>