<?xml version="1.0" standalone="no"?><!DOCTYPE svg PUBLIC "-//W3C//DTD SVG 1.1//EN" "http://www.w3.org/Graphics/SVG/1.1/DTD/svg11.dtd"><svg t="1567407871789" class="icon" viewBox="0 0 1025 1024" version="1.1" xmlns="http://www.w3.org/2000/svg" p-id="12485" xmlns:xlink="http://www.w3.org/1999/xlink" width="128.125" height="128"><defs><style type="text/css"></style></defs><path d="M89.488871 352.556974c0 1.000873-77.210229 70.204115-77.210229 70.204115-14.870118 13.011353-16.442919 35.459512-3.574548 50.329631 7.006113 8.149969 17.014847 12.296444 27.02358 12.296444 8.29295 0 16.728883-2.859638 23.449032-8.721896L512.0004 82.893102l452.966675 393.772166c6.72015 5.862258 15.156082 8.721896 23.449032 8.721896 10.008733 0 19.874485-4.146475 27.02358-12.296444 13.011353-14.870118 11.438552-37.461259-3.574548-50.329631l0 0-88.934745-77.353211 0-100.087333c0-19.731503-16.013973-35.745476-35.745476-35.745476s-35.745476 16.013973-35.745476 35.745476l0 38.033187-315.99001-274.668239c0 0 0 0 0 0-2.28771-2.001747-4.861385-3.71753-7.435059-5.004367 0 0 0 0 0 0-0.428946-0.285964-1.000873-0.428946-1.429819-0.71491 0 0-0.142982 0-0.142982-0.142982-0.428946-0.142982-0.857891-0.428946-1.286837-0.571928-0.142982 0-0.142982-0.142982-0.285964-0.142982-0.428946-0.142982-0.71491-0.285964-1.143855-0.428946-0.142982 0-0.285964-0.142982-0.428946-0.142982-0.285964-0.142982-0.71491-0.285964-1.000873-0.285964-0.142982 0-0.428946-0.142982-0.571928-0.142982-0.285964-0.142982-0.71491-0.142982-1.000873-0.285964-0.142982 0-0.428946-0.142982-0.71491-0.142982-0.428946-0.142982-0.71491-0.142982-1.143855-0.142982-0.142982 0-0.428946-0.142982-0.571928-0.142982-0.428946 0-0.857891-0.142982-1.286837-0.142982-0.142982 0-0.285964 0-0.428946 0-0.571928 0-1.000873-0.142982-1.572801-0.142982 0 0-0.142982 0-0.142982 0-5.576294-0.428946-11.29557 0.428946-16.585901 2.716656 0 0-0.142982 0-0.142982 0.142982-0.428946 0.142982-0.71491 0.285964-1.143855 0.571928-0.142982 0.142982-0.285964 0.142982-0.571928 0.285964-0.285964 0.142982-0.571928 0.285964-0.857891 0.428946-0.285964 0.142982-0.571928 0.285964-0.857891 0.428946-0.142982 0.142982-0.428946 0.142982-0.571928 0.285964-0.285964 0.142982-0.71491 0.428946-1.000873 0.571928-0.142982 0-0.285964 0.142982-0.285964 0.142982-0.428946 0.285964-0.857891 0.571928-1.143855 0.857891 0 0-0.142982 0.142982-0.142982 0.142982-0.428946 0.285964-0.857891 0.571928-1.286837 1.000873 0 0-0.142982 0.142982-0.142982 0.142982-0.428946 0.285964-0.857891 0.71491-1.143855 1.000873 0 0 0 0-0.142982 0L160.979824 293.505448 89.488871 352.556974z" p-id="12486"></path><path d="M893.190159 479.381924c-19.731503 0-35.745476 16.013973-35.745476 35.745476l0 354.881088c0 44.753336-30.74111 82.643541-67.201495 82.643541l-556.19961 0c-36.460386 0-67.201495-37.890205-67.201495-82.643541L166.842082 515.1274c0-19.731503-16.013973-35.745476-35.745476-35.745476-19.731503 0-35.745476 16.013973-35.745476 35.745476l0 354.881088c0 84.931252 62.197129 153.991512 138.692448 153.991512l556.19961 0c76.495319 0 138.692448-69.06026 138.692448-153.991512L928.935635 515.1274C928.935635 495.395897 912.921662 479.381924 893.190159 479.381924L893.190159 479.381924z" p-id="12487"></path></svg>