<?xml version="1.0" standalone="no"?><!DOCTYPE svg PUBLIC "-//W3C//DTD SVG 1.1//EN" "http://www.w3.org/Graphics/SVG/1.1/DTD/svg11.dtd"><svg t="1580353004433" class="icon" viewBox="0 0 1024 1024" version="1.1" xmlns="http://www.w3.org/2000/svg" p-id="991" width="128" height="128" xmlns:xlink="http://www.w3.org/1999/xlink"><defs><style type="text/css"></style></defs><path d="M275.071869 845.066725c0 63.437821 51.421136 114.858958 114.858958 114.858958 52.172243 0 95.721085-35.010375 109.713774-82.653465-62.800301-19.370163-138.505517-60.388369-200.590528-113.065102C284.073894 789.417287 275.071869 818.657238 275.071869 845.066725zM282.945187 381.915269l21.949918 21.057595c83.293031-16.878412 282.020118-269.658579 393.503189-193.916525-2.940982-3.962242-6.201236-7.825222-10.037611-11.506055C579.703985 93.307106 369.286648 364.41878 282.945187 381.915269zM911.573441 124.419707c0-35.136242-28.574802-63.711044-63.711044-63.711044-33.231869 0-60.57768 25.564235-63.447031 58.062394-35.249829-22.122857-73.824379-33.30043-115.235534-33.30043-109.75573 0-220.184795 76.582189-317.630151 144.163377-68.730361 47.670719-133.647883 92.678796-175.682231 92.678796-26.779923 0-46.998407 13.207813-56.924477 37.155225-29.780257 71.954799 46.184879 247.749594 153.389506 354.925568 88.331791 88.360444 229.831502 160.231331 315.414693 160.231331 48.007387 0 76.6661-23.835871 76.6661-63.767326 0-42.034349 45.007053-106.951871 92.678796-175.682231 94.02956-135.606491 209.505571-302.129108 100.82636-447.843818C888.290155 182.495404 911.573441 156.135036 911.573441 124.419707zM812.866349 124.419707c0-19.292392 15.703657-34.996049 34.996049-34.996049s34.996049 15.703657 34.996049 34.996049c0 19.293415-15.703657 34.996049-34.996049 34.996049-7.648191 0-14.7264-2.474354-20.490683-6.65456-2.170432-2.102894-4.355191-4.158716-6.557346-6.164397C815.851333 140.5552 812.866349 132.829238 812.866349 124.419707zM721.674417 610.637508c-53.840232 77.647451-100.334149 144.69652-100.334149 200.219067 0 7.234775 0 20.695345-33.594119 20.695345-66.347081 0-196.685591-59.308781-284.9611-147.611919-106.026802-105.998149-163.007561-262.191514-144.023184-307.983443 2.692319-6.53381 6.506181-10.571776 17.105586-10.571776 55.522548 0 122.570593-46.493917 200.219067-100.361779 92.257194-63.963801 196.798155-136.479371 293.093315-136.479371 49.213865 0 92.089371 18.956747 131.068128 57.93448C927.529855 313.786613 818.166051 471.494471 721.674417 610.637508z" p-id="992"></path></svg>