<?xml version="1.0" standalone="no"?><!DOCTYPE svg PUBLIC "-//W3C//DTD SVG 1.1//EN" "http://www.w3.org/Graphics/SVG/1.1/DTD/svg11.dtd"><svg t="1593052385978" class="icon" viewBox="0 0 1024 1024" version="1.1" xmlns="http://www.w3.org/2000/svg" p-id="1233" xmlns:xlink="http://www.w3.org/1999/xlink" width="200" height="200"><defs><style type="text/css"></style></defs><path d="M784 112H592c-72 0-132.8 46.4-152 112H318.4c-48 0-91.2 27.2-113.6 68.8L94.4 507.2C84.8 524.8 80 545.6 80 566.4V704c0 52.8 43.2 96 96 96h32c0 62.4 49.6 112 112 112s112-49.6 112-112h160c0 62.4 49.6 112 112 112s112-49.6 112-112h32c52.8 0 96-43.2 96-96V272c0-88-72-160-160-160zM496 272c0-52.8 43.2-96 96-96h192c52.8 0 96 43.2 96 96v128c0 52.8-43.2 96-96 96H592c-52.8 0-96-43.2-96-96V272zM320 848c-27.2 0-48-20.8-48-48s20.8-48 48-48 48 20.8 48 48-20.8 48-48 48z m384 0c-27.2 0-48-20.8-48-48s20.8-48 48-48 48 20.8 48 48-20.8 48-48 48z m144-112h-52.8c-20.8-28.8-54.4-48-91.2-48s-72 19.2-91.2 48H411.2c-20.8-28.8-54.4-48-91.2-48s-72 19.2-91.2 48H176c-17.6 0-32-14.4-32-32V566.4c0-9.6 3.2-20.8 6.4-28.8l110.4-214.4c11.2-20.8 33.6-35.2 57.6-35.2H432v112c0 88 72 160 160 160h192c36.8 0 68.8-12.8 96-32v176c0 17.6-14.4 32-32 32z" p-id="1234"></path><path d="M352 416h-64c-17.6 0-32 14.4-32 32s14.4 32 32 32h64c17.6 0 32-14.4 32-32s-14.4-32-32-32z" p-id="1235"></path></svg>