<?xml version="1.0" standalone="no"?><!DOCTYPE svg PUBLIC "-//W3C//DTD SVG 1.1//EN" "http://www.w3.org/Graphics/SVG/1.1/DTD/svg11.dtd"><svg t="1567408413530" class="icon" viewBox="0 0 1024 1024" version="1.1" xmlns="http://www.w3.org/2000/svg" p-id="18708" xmlns:xlink="http://www.w3.org/1999/xlink" width="128" height="128"><defs><style type="text/css"></style></defs><path d="M557.632293 272.930089c-116.67021 0-211.250308 94.580099-211.250308 211.250308s94.580099 211.250308 211.250308 211.250308 211.250308-94.580099 211.250308-211.250308S674.302503 272.930089 557.632293 272.930089zM557.632293 654.257981c-93.931323 0-170.077583-76.146261-170.077583-170.077583s76.146261-170.077583 170.077583-170.077583 170.077583 76.146261 170.077583 170.077583S651.563616 654.257981 557.632293 654.257981z" p-id="18709"></path><path d="M963.390597 544.129768c-2.279926-1.263783-4.586458-2.442632-6.816243-3.581572-3.233648-1.65264-6.28924-3.214205-9.184173-4.972245-15.85613-9.627265-26.173103-24.966625-28.303626-42.087561-2.153036-17.291828 4.186346-34.903951 17.391089-48.321542 8.831132-8.973372 19.902282-14.719236 31.623231-20.801768l2.466168-1.281179c24.26873-12.639878 36.350906-32.810267 34.023908-56.795541-3.728928-38.414915-14.030551-69.811995-31.493272-95.984075-16.344247-24.49488-33.470299-35.417651-55.527664-35.417651-8.905834 0-18.777669 1.801019-30.184463 5.505387-7.969509 2.588965-17.368576 5.448082-26.666336 7.034207-3.000334 0.511653-6.076392 0.77055-9.145287 0.77055-25.515117 0.001023-49.213865-17.903765-55.126528-41.646516-3.451612-13.865799-1.857301-28.820396 4.878101-45.718251 10.382465-26.054399 4.517897-50.018184-17.428951-71.224158-11.272741-10.892071-26.753317-24.304546-46.563502-31.396057-25.440415-9.106402-45.89119-15.171538-63.003939-15.171538-27.671223 0-46.470381 14.956643-67.049069 53.343929-10.113335 18.863626-27.907607 29.684066-48.821939 29.686113-20.668739 0.001023-40.310078-10.865465-52.540633-29.068036-2.759857-4.106528-5.071506-8.593725-7.519254-13.343913-1.939165-3.76372-3.943822-7.656377-6.232958-11.43647-11.735275-19.380396-28.756951-29.624714-49.224098-29.624714-2.575662 0-5.239328 0.164752-7.91425 0.488117-21.063735 2.550079-45.572942 6.600325-67.656913 17.300015-62.026682 30.051433-68.058049 56.339146-58.118676 103.898325 8.689916 41.572838-6.51846 71.101361-40.681538 78.986959-4.909823 1.1328-9.890254 1.684362-15.22475 1.684362-10.205433 0-21.140483-1.989307-35.45756-6.449899-7.559163-2.355651-14.908548-3.549849-21.844517-3.549849-18.6078 0-34.848693 8.43102-48.269353 25.057699-14.514575 17.98256-24.689309 39.261189-32.020274 66.967204-13.986549 52.856835-2.048659 80.527035 45.616944 105.738229 18.8493 9.969049 31.311123 24.180725 35.090193 40.015366 3.247974 13.606903 0.013303 27.79709-9.353019 41.034579-8.993838 12.712533-21.618367 22.472827-38.59604 29.838585-23.912619 10.376325-36.848233 29.219485-37.410028 54.494125-1.028423 46.196135 14.07967 86.335321 44.901653 119.302153 11.396561 12.189623 25.922393 18.370393 43.173289 18.370393 3.914146 0 8.013511-0.327458 12.18246-0.973164 4.711302-0.729617 9.341762-1.743714 13.81975-2.725064 7.850805-1.720178 15.267728-3.346211 22.409382-3.346211 1.882883 0 3.632737 0.109494 5.348821 0.337691l0.974188 0.12996 0.974188-0.128937c2.38942-0.316202 4.776793-0.476861 7.094582-0.476861 15.162328 0 28.587082 6.959505 36.830837 19.092847 8.645914 12.724813 10.305717 29.164227 4.438079 43.972491-1.3743 3.467985-2.340301 6.946202-3.273557 10.308787-0.731664 2.63399-1.423419 5.121648-2.270716 7.485485-9.945513 27.727505-4.14439 51.735291 17.242709 71.356165 21.61325 19.830651 48.65821 33.656541 82.678024 42.268686 16.675798 4.223185 28.706809 6.105045 39.009456 6.105045 30.642904 0 46.888913-17.779945 66.146513-50.588165 13.8351-23.568788 31.434943-35.025725 53.80544-35.025725 0.279363 0 0.558725 0.002047 0.841158 0.005117 22.457478 0.282433 39.173185 11.296277 52.601009 34.659381 1.49505 2.599198 2.867304 5.27105 4.320399 8.100492 2.023076 3.936659 4.114714 8.008394 6.596232 11.941983 12.862959 20.396539 30.728862 30.738072 53.097312 30.738072 3.743254 0 7.679913-0.289596 11.700483-0.862647 30.789237-4.38589 59.33948-15.008832 84.856643-31.575136 33.727149-21.895683 44.113707-52.398394 30.03199-88.210018-8.56405-21.781072-7.256264-44.210921 3.499707-59.998489 9.155521-13.438057 24.180725-20.539802 43.453674-20.539802 4.257977 0 8.758478 0.353041 13.375635 1.050935 1.335415 0.202615 2.673899 0.398066 4.01136 0.594541 5.431709 0.796132 10.56052 1.547239 15.621792 2.673899 9.993608 2.222621 18.881023 3.303232 27.170826 3.303232 0.002047 0 0.001023 0 0.00307 0 29.114085 0 50.551326-13.405311 69.50398-43.462884 13.588483-21.550829 21.717627-45.893236 24.850991-74.42199C1005.693052 585.051783 992.662271 560.345078 963.390597 544.129768zM761.174036 811.393811c11.07422 35.982516 8.398274 42.759873-23.863501 60.428278-9.843182 5.390777-18.565844 9.225105-26.668383 11.722996-15.663748 4.831029-26.387997 7.627724-34.843576 7.628748-11.867282 0.001023-20.313651-5.064342-33.545-32.750915-16.424064-34.369785-46.90324-53.29788-85.823668-53.29788l-0.453325 0.001023c-36.016285 0.1361-65.340147 18.823718-87.157036 55.540967-15.07637 25.372877-19.444864 30.816866-31.470759 30.816866-6.430456 0-14.948457-1.557472-27.486004-4.247744-25.469068-5.466502-48.222281-16.744359-67.62826-33.521464-11.899004-10.286274-14.381545-19.940145-8.569166-33.31885 7.520277-17.312294 14.530948-38.234813 9.509585-62.156642-8.881274-42.304502-39.945781-68.584028-81.07041-68.584028-4.635577 0-9.41851 0.338714-14.21577 1.006933-8.699126 1.210571-15.857153 2.282996-22.529109 3.373841-10.506285 1.717108-17.764596 2.484587-23.533996 2.484587-16.720823 0.001023-23.608697-6.082532-36.85028-32.547277-5.509481-11.011798-9.909697-23.049972-12.724813-34.8139-4.725628-19.74981-5.336542-28.604478-2.422166-35.088146 3.239787-7.207146 12.31856-13.353123 27.938306-22.175045 51.510164-29.091572 71.854515-82.487689 48.373731-126.96467-11.973706-22.679535-30.792307-39.757492-55.933917-50.760081-17.147542-7.504928-23.857361-19.304671-21.75549-38.262442 2.936889-26.481118 12.186554-49.930179 27.493168-69.698408 7.153934-9.239432 14.038738-13.360286 22.323425-13.360286 3.202948 0 6.768147 0.615007 10.599406 1.828648 14.956643 4.736884 29.66053 8.989745 45.108361 8.989745 4.412496 0 8.742105-0.36225 12.869099-1.077541 31.908734-5.528923 53.722552-18.431791 66.687842-39.447431 10.884908-17.642822 15.567557-40.336684 15.183817-73.579809-0.021489-1.87879-0.511653-3.448542-0.837064-4.487198-0.073678-0.233314-0.156566-0.463558-0.201591-0.669242-7.586792-44.686758-2.325975-53.912887 40.203654-70.523193 8.325619-3.252067 16.519232-5.867638 24.352641-7.77508 12.524245-3.049452 21.892613-5.207605 28.390607-5.207605 10.031471 0 14.044878 5.281283 28.345582 29.892821 20.547988 35.365462 49.697889 53.295833 86.641289 53.295833 0.538259 0 1.074472-0.004093 1.616824-0.01228 37.543058-0.538259 67.828828-19.431561 87.583754-54.638411 12.911054-23.011086 18.069541-27.979238 29.049616-27.979238 6.311753 0 14.637372 1.681292 25.196869 4.205788 17.367553 4.152577 30.226418 9.570983 40.46562 17.052374 17.135262 12.519128 25.051559 20.730137 27.322275 28.339442 2.167363 7.260357-0.370437 15.558347-5.042853 29.600155-10.092869 30.338982-5.867638 61.624523 11.593036 85.834924 17.794271 24.672936 46.921659 38.823214 79.913051 38.823214 0.268106 0 0.531096 0 0.797156-0.002047 1.327228 0.100284 2.702552 0.150426 4.095271 0.150426 15.133675 0 31.865755-5.877871 46.62797-11.062963 3.883447-1.364067 7.493671-2.055822 10.730389-2.055822 6.80601 0 12.485359 3.010567 17.873066 9.474792 19.906375 23.887037 30.435173 52.745295 32.18605 88.226391 0.591471 11.975752-7.764847 16.911158-21.448498 23.970948l-0.212848 0.110517c-22.50455 11.613502-53.329603 31.830963-61.155848 73.14388-8.340969 44.028772 10.029424 84.006276 46.802956 101.847619 42.090631 20.421098 40.414455 33.027208 27.365254 78.001515-3.169179 10.923794-9.449209 21.966291-19.763113 34.753525-8.789177 10.896164-18.658965 16.192797-30.175253 16.192797-4.098341 0-8.495488-0.679475-13.071713-2.02103-16.367783-4.79419-31.045063-7.124258-44.867884-7.124258-6.611581 0-13.140275 0.546446-19.404955 1.623987-25.489534 4.38896-46.76714 18.590404-59.912531 39.990806C755.594971 753.612827 752.461607 783.084045 761.174036 811.393811z" p-id="18710"></path></svg>