<?xml version="1.0" standalone="no"?><!DOCTYPE svg PUBLIC "-//W3C//DTD SVG 1.1//EN" "http://www.w3.org/Graphics/SVG/1.1/DTD/svg11.dtd"><svg t="1567407991460" class="icon" viewBox="0 0 1024 1024" version="1.1" xmlns="http://www.w3.org/2000/svg" p-id="15486" xmlns:xlink="http://www.w3.org/1999/xlink" width="128" height="128"><defs><style type="text/css"></style></defs><path d="M859.654321 65.015873 164.345679 65.015873c-89.697825 0-162.539683 72.841858-162.539683 162.539683l0 568.888889c0 89.697825 72.841858 162.539683 162.539683 162.539683l695.308642 0c89.697825 0 162.539683-72.841858 162.539683-162.539683L1022.194004 227.555556C1021.592005 137.857731 949.352146 65.015873 859.654321 65.015873zM305.213404 511.699001 55.985891 760.926514 55.985891 263.073486 305.213404 511.699001zM609.824809 546.614932c-25.885949 25.885949-60.801881 40.333921-98.125808 40.333921s-71.63786-14.447972-98.125808-40.333921L60.801881 193.241623c13.845973-45.149912 54.179894-74.647854 103.543798-74.647854l695.308642 0c49.363904 0 89.697825 28.895944 103.543798 74.647854L609.824809 546.614932zM340.129336 546.614932l39.129924 39.129924c35.517931 35.517931 82.473839 54.781893 133.04174 54.781893s97.52381-19.263962 133.04174-54.781893l39.129924-39.129924 279.929453 279.929453c-12.641975 47.557907-53.577895 78.259847-104.747795 78.259847L164.345679 904.804233c-51.1699 0-92.10582-30.70194-104.747795-77.657848L340.129336 546.614932zM968.014109 263.073486l0 497.853028L718.786596 511.699001 968.014109 263.073486z" p-id="15487"></path></svg>