<?xml version="1.0" standalone="no"?><!DOCTYPE svg PUBLIC "-//W3C//DTD SVG 1.1//EN" "http://www.w3.org/Graphics/SVG/1.1/DTD/svg11.dtd"><svg t="1597490711263" class="icon" viewBox="0 0 1024 1024" version="1.1" xmlns="http://www.w3.org/2000/svg" p-id="2680" xmlns:xlink="http://www.w3.org/1999/xlink" width="128" height="128"><defs><style type="text/css"></style></defs><path d="M942.72 243.328a33.92 33.92 0 0 1 17.024 29.376v476.672c0 12.16-6.464 23.296-16.96 29.312l-413.44 238.464a34.688 34.688 0 0 1-17.024 4.544 34.688 34.688 0 0 1-16.96-4.48L81.92 778.624a33.92 33.92 0 0 1-17.024-29.312V272.704c0-12.16 6.464-23.296 16.96-29.376L495.36 5.12a33.92 33.92 0 0 1 33.984 0l413.44 238.272z m-50.816 486.528V292.288L512.32 73.472l-379.52 218.88v437.504l379.52 218.88 379.52-218.88h0.064zM229.44 360.192a34.048 34.048 0 0 1 46.336-12.544l236.544 136.32 236.544-136.32a33.984 33.984 0 0 1 33.92 58.688L545.856 542.976v268.8a33.856 33.856 0 0 1-57.984 24 33.792 33.792 0 0 1-9.92-24.064V542.528L241.856 406.528a33.92 33.92 0 0 1-12.416-46.336z" p-id="2681"></path></svg>