<?xml version="1.0" standalone="no"?><!DOCTYPE svg PUBLIC "-//W3C//DTD SVG 1.1//EN" "http://www.w3.org/Graphics/SVG/1.1/DTD/svg11.dtd"><svg t="1595832416337" class="icon" viewBox="0 0 1024 1024" version="1.1" xmlns="http://www.w3.org/2000/svg" p-id="4216" xmlns:xlink="http://www.w3.org/1999/xlink" width="200" height="200"><defs><style type="text/css"></style></defs><path d="M253.597 727.333c23.564 0 42.667 19.103 42.667 42.667s-19.103 42.667-42.667 42.667h-69.041c-55.462 0-99.556-46.3-99.556-102.4V460.11c0-23.564 19.103-42.667 42.667-42.667s42.666 19.103 42.666 42.667v250.157c0 9.878 6.846 17.066 14.223 17.066h69.041z m418.24-457.891l144.186 11.751c65.678 5.353 116.56 59.695 117.587 125.583l4.723 303.49c0 56.102-44.094 102.4-99.555 102.4h-84.14c-23.563 0-42.666-19.102-42.666-42.666 0-23.564 19.103-42.667 42.667-42.667h84.139c7.376 0 14.222-7.188 14.227-16.402l-4.718-302.826c-0.342-21.962-17.303-40.076-39.195-41.86L636.2 352.153a42.667 42.667 0 0 1-37.27-29.836l-23.99-77.008c-5.555-17.83-22.06-29.977-40.736-29.977h-349.65c-7.376 0-14.222 7.188-14.222 17.067v71.606c0 23.564-19.102 42.667-42.666 42.667-23.564 0-42.667-19.103-42.667-42.667V232.4c0-56.1 44.094-102.4 99.556-102.4h349.65c56.027 0 105.543 36.438 122.207 89.93l15.424 49.512z m-318.57 625.51c-63.48 0-114.667-51.998-114.667-115.81 0-63.81 51.186-115.809 114.667-115.809 63.48 0 114.666 52 114.666 115.81s-51.186 115.81-114.666 115.81z m0-85.333c16.048 0 29.333-13.496 29.333-30.476 0-16.98-13.285-30.476-29.333-30.476-16.049 0-29.334 13.495-29.334 30.476 0 16.98 13.285 30.476 29.334 30.476z m218.704 12.19H436.933c-23.564 0-42.666-19.102-42.666-42.666 0-23.564 19.102-42.667 42.666-42.667h135.038c16.8-42.787 58.126-73.143 106.629-73.143 63.48 0 114.667 52 114.667 115.81S742.08 894.953 678.6 894.953c-48.503 0-89.828-30.357-106.629-73.143zM678.6 809.62c16.049 0 29.333-13.496 29.333-30.476 0-16.98-13.284-30.476-29.333-30.476s-29.333 13.495-29.333 30.476c0 16.98 13.284 30.476 29.333 30.476z m53.782-300.19c17.673 0 32 14.326 32 32 0 17.673-14.327 32-32 32h-96.449c-17.673 0-32-14.327-32-32v-97.524c0-17.673 14.327-32 32-32 17.673 0 32 14.327 32 32v65.524h64.449z" p-id="4217"></path></svg>