<?xml version="1.0" standalone="no"?><!DOCTYPE svg PUBLIC "-//W3C//DTD SVG 1.1//EN" "http://www.w3.org/Graphics/SVG/1.1/DTD/svg11.dtd"><svg t="1567477718824" class="icon" viewBox="0 0 1024 1024" version="1.1" xmlns="http://www.w3.org/2000/svg" p-id="3596" xmlns:xlink="http://www.w3.org/1999/xlink" width="128" height="128"><defs><style type="text/css"></style></defs><path d="M480 256C427.072 256 384 299.072 384 352S427.072 448 480 448 576 404.928 576 352 532.928 256 480 256zM480 64C214.848 64 0 278.848 0 544S214.848 1024 480 1024 960 809.152 960 544 745.152 64 480 64zM736 768c-17.664 0-32-14.336-32-32C704 612.48 603.52 512 480 512S256 612.48 256 736C256 753.664 241.664 768 224 768S192 753.664 192 736c0-120.64 74.688-223.808 180.096-266.624C340.288 440.128 320 398.592 320 352 320 263.744 391.744 192 480 192S640 263.744 640 352c0 46.592-20.288 88.128-52.096 117.376C693.312 512.192 768 615.36 768 736 768 753.664 753.664 768 736 768z" p-id="3597"></path></svg>