<?xml version="1.0" standalone="no"?><!DOCTYPE svg PUBLIC "-//W3C//DTD SVG 1.1//EN" "http://www.w3.org/Graphics/SVG/1.1/DTD/svg11.dtd"><svg t="1567408087576" class="icon" viewBox="0 0 1024 1024" version="1.1" xmlns="http://www.w3.org/2000/svg" p-id="15597" xmlns:xlink="http://www.w3.org/1999/xlink" width="128" height="128"><defs><style type="text/css"></style></defs><path d="M256.927624 439.006871 172.164518 439.006871c-42.779106 0-77.595106 34.888282-77.595106 77.775812l0 395.709741c0 42.887529 34.816 77.775812 77.595106 77.775812l84.763106 0c42.791153 0 77.607153-34.888282 77.607153-77.775812L334.534776 516.782682C334.534776 473.895153 299.718776 439.006871 256.927624 439.006871zM256.927624 475.473318c21.347388 0 40.008282 19.913788 40.008282 41.309365l0 395.709741c0 21.395576-18.660894 41.309365-40.008282 41.309365L172.164518 953.801788c-21.347388 0-40.008282-19.913788-40.008282-41.309365L132.156235 516.782682c0-21.395576 18.660894-41.309365 40.008282-41.309365L256.927624 475.473318z" p-id="15598"></path><path d="M554.369506 26.503529l-84.751059 0c-42.791153 0-77.595106 34.888282-77.595106 77.775812l0 808.213082c0 42.887529 34.816 77.775812 77.595106 77.775812l84.751059 0c42.791153 0 77.607153-34.888282 77.607153-77.775812L631.976659 104.279341C631.976659 61.391812 597.160659 26.503529 554.369506 26.503529zM554.369506 64.174682c21.347388 0 40.020329 18.709082 40.020329 40.104659l0 808.213082c0 21.395576-18.672941 41.309365-40.020329 41.309365l-84.751059 0c-21.347388 0-40.008282-19.913788-40.008282-41.309365L429.610165 104.279341c0-21.395576 18.660894-40.104659 40.008282-40.104659L554.369506 64.174682z" p-id="15599"></path><path d="M851.823435 223.882541l-84.751059 0c-42.791153 0-77.607153 34.888282-77.607153 77.775812l0 610.834071c0 42.887529 34.816 77.775812 77.607153 77.775812l84.751059 0c42.791153 0 77.607153-34.888282 77.607153-77.775812L929.430588 301.658353C929.430588 258.770824 894.614588 223.882541 851.823435 223.882541zM851.823435 260.348988c21.359435 0 40.020329 19.913788 40.020329 41.309365l0 610.834071c0 21.395576-18.660894 42.514071-40.020329 42.514071l-84.751059 0c-21.347388 0-38.815624-21.118494-38.815624-42.514071L728.256753 301.658353c0-21.395576 17.468235-41.309365 38.815624-41.309365L851.823435 260.348988z" p-id="15600"></path></svg>