<?xml version="1.0" standalone="no"?><!DOCTYPE svg PUBLIC "-//W3C//DTD SVG 1.1//EN" "http://www.w3.org/Graphics/SVG/1.1/DTD/svg11.dtd"><svg t="1562412825371" class="icon" viewBox="0 0 1024 1024" version="1.1" xmlns="http://www.w3.org/2000/svg" p-id="2020" xmlns:xlink="http://www.w3.org/1999/xlink" width="200" height="200"><defs><style type="text/css"></style></defs><path d="M894.3616 223.0272l-370.688-109.3632c-3.4816-1.024-7.168-1.6384-10.8544-1.6384-3.6864 0-7.168 0.4096-10.6496 1.4336l-351.232 102.4c-4.9152 0.2048-9.4208 1.6384-13.5168 3.8912l-6.5536 1.8432c-16.384 4.7104-27.648 19.6608-27.648 36.864L102.1952 733.184c0 15.9744 9.8304 30.3104 24.7808 36.0448L497.4592 909.312c4.3008 1.6384 9.0112 2.4576 13.5168 2.4576 4.5056 0 9.216-0.8192 13.5168-2.4576l371.5072-138.8544c14.9504-5.5296 24.9856-19.8656 24.9856-35.84l0.8192-474.5216c0-17.2032-11.0592-32.1536-27.4432-37.0688zM529.2032 177.5616l216.064 63.6928c7.168 2.048 7.168 12.288 0.2048 14.5408l-215.6544 68.4032c-11.6736 3.6864-23.9616 3.6864-35.6352 0l-214.8352-69.2224c-7.168-2.2528-6.9632-12.4928 0.2048-14.5408l216.8832-63.0784c10.6496-2.8672 22.1184-2.8672 32.768 0.2048zM185.344 287.5392l284.672 91.5456c7.168 2.2528 12.0832 9.0112 12.0832 16.5888v418.816c0 12.0832-12.0832 20.48-23.552 16.1792L173.2608 722.7392c-6.7584-2.6624-11.264-9.0112-11.264-16.384l0.8192-402.2272c-0.2048-11.8784 11.4688-20.0704 22.528-16.5888z" p-id="2021"></path></svg>