<?xml version="1.0" standalone="no"?><!DOCTYPE svg PUBLIC "-//W3C//DTD SVG 1.1//EN" "http://www.w3.org/Graphics/SVG/1.1/DTD/svg11.dtd"><svg t="1586854619150" class="icon" viewBox="0 0 1024 1024" version="1.1" xmlns="http://www.w3.org/2000/svg" p-id="2398" xmlns:xlink="http://www.w3.org/1999/xlink" width="128" height="128"><defs><style type="text/css"></style></defs><path d="M541.84 947.51h-297.1c-53.14 0-96.36-43.23-96.36-96.37V172.85c0-53.14 43.23-96.36 96.36-96.36h534.52c53.14 0 96.36 43.23 96.36 96.36v440.86c0 184.06-149.74 333.8-333.78 333.8zM244.74 141.6c-17.24 0-31.26 14.02-31.26 31.26v678.28c0 17.25 14.02 31.27 31.26 31.27h297.1c148.15 0 268.68-120.53 268.68-268.69V172.85c0-17.24-14.02-31.26-31.26-31.26H244.74z" p-id="2399"></path><path d="M652.12 455.25H371.88c-17.98 0-32.55-14.58-32.55-32.55s14.58-32.55 32.55-32.55h280.24c17.98 0 32.55 14.58 32.55 32.55s-14.57 32.55-32.55 32.55zM528.98 656.47h-157.1c-17.98 0-32.55-14.58-32.55-32.55 0-17.98 14.58-32.55 32.55-32.55h157.1c17.98 0 32.55 14.58 32.55 32.55 0.01 17.97-14.57 32.55-32.55 32.55z" p-id="2400"></path></svg>