<?xml version="1.0" standalone="no"?><!DOCTYPE svg PUBLIC "-//W3C//DTD SVG 1.1//EN" "http://www.w3.org/Graphics/SVG/1.1/DTD/svg11.dtd"><svg t="1567477723319" class="icon" viewBox="0 0 1024 1024" version="1.1" xmlns="http://www.w3.org/2000/svg" p-id="3714" xmlns:xlink="http://www.w3.org/1999/xlink" width="128" height="128"><defs><style type="text/css"></style></defs><path d="M423.135 591.702c73.554 0 142.707-28.643 194.719-80.655 52.011-52.01 80.655-121.162 80.655-194.717s-28.645-142.709-80.655-194.72C565.842 69.6 496.69 40.957 423.135 40.957S280.428 69.599 228.416 121.61c-52.011 52.01-80.655 121.163-80.655 194.719s28.645 142.707 80.655 194.717c52.012 52.012 121.164 80.655 194.72 80.655z m0-468.883c106.701 0 193.51 86.808 193.51 193.51 0 106.702-86.809 193.51-193.51 193.51s-193.51-86.808-193.51-193.51c0-106.702 86.809-193.51 193.51-193.51z m362.813 672.11c-25.813-39.39-57.674-74.156-94.7-103.333-37.404-29.476-79.05-52.428-123.779-68.217-46.28-16.337-94.84-24.621-144.333-24.621s-98.054 8.284-144.333 24.62c-44.73 15.79-86.375 38.742-123.78 68.218-37.026 29.178-68.887 63.944-94.7 103.333-26.265 40.08-45.555 83.88-57.33 130.183-5.573 21.909 7.67 44.186 29.58 49.758 21.908 5.574 44.186-7.67 49.758-29.58 39.634-155.832 179.779-264.668 340.806-264.668S724.31 789.457 763.943 945.29c4.711 18.525 21.364 30.853 39.64 30.853 3.339 0 6.734-0.411 10.118-1.273 21.91-5.572 35.153-27.85 29.58-49.758-11.777-46.303-31.066-90.103-57.333-130.183zM996.58 423.484c-20.978-8.418-44.811 1.767-53.23 22.748L873.54 620.238l-71.597-174.317c-8.59-20.911-32.503-30.9-53.415-22.312-20.911 8.59-30.9 32.504-22.311 53.414L836.124 744.61a40.931 40.931 0 0 0 37.861 25.38h0.17a40.934 40.934 0 0 0 37.822-25.69l107.352-267.587c8.416-20.98-1.769-44.812-22.75-53.229z" fill="" p-id="3715"></path></svg>