<?xml version="1.0" standalone="no"?><!DOCTYPE svg PUBLIC "-//W3C//DTD SVG 1.1//EN" "http://www.w3.org/Graphics/SVG/1.1/DTD/svg11.dtd"><svg t="1567408183703" class="icon" viewBox="0 0 1024 1024" version="1.1" xmlns="http://www.w3.org/2000/svg" p-id="18595" xmlns:xlink="http://www.w3.org/1999/xlink" width="128" height="128"><defs><style type="text/css"></style></defs><path d="M386.612245 470.204082H177.632653c-45.97551 0-83.591837-37.616327-83.591837-83.591837V177.632653c0-45.97551 37.616327-83.591837 83.591837-83.591837h208.979592c45.97551 0 83.591837 37.616327 83.591837 83.591837v208.979592c0 45.97551-37.616327 83.591837-83.591837 83.591837zM177.632653 135.836735c-22.987755 0-41.795918 18.808163-41.795918 41.795918v208.979592c0 22.987755 18.808163 41.795918 41.795918 41.795918h208.979592c22.987755 0 41.795918-18.808163 41.795918-41.795918V177.632653c0-22.987755-18.808163-41.795918-41.795918-41.795918H177.632653zM846.367347 470.204082h-208.979592c-45.97551 0-83.591837-37.616327-83.591837-83.591837V177.632653c0-45.97551 37.616327-83.591837 83.591837-83.591837h208.979592c45.97551 0 83.591837 37.616327 83.591837 83.591837v208.979592c0 45.97551-37.616327 83.591837-83.591837 83.591837z m-208.979592-334.367347c-22.987755 0-41.795918 18.808163-41.795918 41.795918v208.979592c0 22.987755 18.808163 41.795918 41.795918 41.795918h208.979592c22.987755 0 41.795918-18.808163 41.795918-41.795918V177.632653c0-22.987755-18.808163-41.795918-41.795918-41.795918h-208.979592z" p-id="18596"></path><path d="M773.22449 344.816327h-62.693878c-17.240816 0-31.346939-14.106122-31.346939-31.346939V250.77551c0-17.240816 14.106122-31.346939 31.346939-31.346939h62.693878c17.240816 0 31.346939 14.106122 31.346939 31.346939v62.693878c0 17.240816-14.106122 31.346939-31.346939 31.346939zM313.469388 344.816327H250.77551c-17.240816 0-31.346939-14.106122-31.346939-31.346939V250.77551c0-17.240816 14.106122-31.346939 31.346939-31.346939h62.693878c17.240816 0 31.346939 14.106122 31.346939 31.346939v62.693878c0 17.240816-14.106122 31.346939-31.346939 31.346939zM313.469388 804.571429H250.77551c-17.240816 0-31.346939-14.106122-31.346939-31.346939v-62.693878c0-17.240816 14.106122-31.346939 31.346939-31.346939h62.693878c17.240816 0 31.346939 14.106122 31.346939 31.346939v62.693878c0 17.240816-14.106122 31.346939-31.346939 31.346939zM574.693878 929.959184c-11.493878 0-20.897959-9.404082-20.89796-20.89796v-271.673469c0-45.97551 37.616327-83.591837 83.591837-83.591837h41.795918c45.97551 0 83.591837 37.616327 83.591837 83.591837v62.693878c0 22.987755 18.808163 41.795918 41.795919 41.795918h41.795918c22.987755 0 41.795918-18.808163 41.795918-41.795918v-125.387755c0-11.493878 9.404082-20.897959 20.897959-20.89796s20.897959 9.404082 20.89796 20.89796v125.387755c0 45.97551-37.616327 83.591837-83.591837 83.591836h-41.795918c-45.97551 0-83.591837-37.616327-83.591837-83.591836v-62.693878c0-22.987755-18.808163-41.795918-41.795919-41.795918h-41.795918c-22.987755 0-41.795918 18.808163-41.795918 41.795918v271.673469c0 11.493878-9.404082 20.897959-20.897959 20.89796zM909.061224 929.959184h-167.183673c-11.493878 0-20.897959-9.404082-20.897959-20.89796s9.404082-20.897959 20.897959-20.897959h167.183673c11.493878 0 20.897959 9.404082 20.89796 20.897959s-9.404082 20.897959-20.89796 20.89796z" p-id="18597"></path><path d="M386.612245 929.959184H177.632653c-45.97551 0-83.591837-37.616327-83.591837-83.591837v-208.979592c0-45.97551 37.616327-83.591837 83.591837-83.591837h208.979592c45.97551 0 83.591837 37.616327 83.591837 83.591837v208.979592c0 45.97551-37.616327 83.591837-83.591837 83.591837z m-208.979592-334.367347c-22.987755 0-41.795918 18.808163-41.795918 41.795918v208.979592c0 22.987755 18.808163 41.795918 41.795918 41.795918h208.979592c22.987755 0 41.795918-18.808163 41.795918-41.795918v-208.979592c0-22.987755-18.808163-41.795918-41.795918-41.795918H177.632653z" p-id="18598"></path></svg>