<?xml version="1.0" standalone="no"?><!DOCTYPE svg PUBLIC "-//W3C//DTD SVG 1.1//EN" "http://www.w3.org/Graphics/SVG/1.1/DTD/svg11.dtd"><svg t="1595832149171" class="icon" viewBox="0 0 1024 1024" version="1.1" xmlns="http://www.w3.org/2000/svg" p-id="3428" xmlns:xlink="http://www.w3.org/1999/xlink" width="200" height="200"><defs><style type="text/css"></style></defs><path d="M509.074286 1024C228.205714 1024 0 795.794286 0 509.074286 0 228.205714 228.205714 0 509.074286 0c280.868571 0 509.074286 228.205714 509.074285 509.074286 5.851429 286.72-222.354286 514.925714-509.074285 514.925714zM509.074286 40.96c-257.462857 0-468.114286 210.651429-468.114286 468.114286s210.651429 468.114286 468.114286 468.114285 468.114286-210.651429 468.114285-468.114285-210.651429-468.114286-468.114285-468.114286z" p-id="3429"></path><path d="M468.114286 713.874286h304.274285c-5.851429 11.702857-5.851429 23.405714-17.554285 40.96H456.411429c-58.514286 0-99.474286-23.405714-122.88-58.514286-11.702857 5.851429-35.108571 29.257143-64.365715 64.365714l-23.405714-40.96 64.365714-64.365714v-175.542857h-52.662857v-40.96h105.325714v222.354286c17.554286 35.108571 52.662857 52.662857 105.325715 52.662857zM315.977143 263.314286c17.554286 23.405714 40.96 52.662857 76.068571 99.474285l-40.96 23.405715c-29.257143-40.96-52.662857-76.068571-70.217143-99.474286l35.108572-23.405714z m269.165714 333.531428v40.96c-35.108571 11.702857-64.365714 29.257143-99.474286 40.96-11.702857 5.851429-17.554286 11.702857-29.257142 17.554286l-29.257143-40.96c11.702857-11.702857 17.554286-23.405714 17.554285-35.108571V275.017143h263.314286v239.908571h-40.96v-17.554285H485.668571v134.582857c29.257143-5.851429 58.514286-23.405714 99.474286-35.108572z m81.92-286.72H485.668571v58.514286h187.245715v-58.514286z m0 152.137143v-58.514286H485.668571v58.514286h181.394286z m64.365714 46.811429l29.257143 35.108571c-35.108571 11.702857-64.365714 29.257143-99.474285 40.96 35.108571 23.405714 70.217143 40.96 93.622857 58.514286l-23.405715 35.108571c-58.514286-40.96-122.88-87.771429-204.8-134.582857l23.405715-29.257143c23.405714 17.554286 52.662857 29.257143 76.068571 46.811429 29.257143-11.702857 64.365714-29.257143 105.325714-52.662857z" p-id="3430"></path></svg>