<?xml version="1.0" standalone="no"?><!DOCTYPE svg PUBLIC "-//W3C//DTD SVG 1.1//EN" "http://www.w3.org/Graphics/SVG/1.1/DTD/svg11.dtd"><svg t="1567477870262" class="icon" viewBox="0 0 1024 1024" version="1.1" xmlns="http://www.w3.org/2000/svg" p-id="5974" xmlns:xlink="http://www.w3.org/1999/xlink" width="128" height="128"><defs><style type="text/css"></style></defs><path d="M493.411643 554.452881c-132.722814 0-240.718457-107.974154-240.718457-240.696967 0-132.701325 107.995643-240.675478 240.718457-240.675478s240.675478 107.974154 240.675478 240.675478C734.087121 446.478727 626.134457 554.452881 493.411643 554.452881zM493.411643 139.247414c-96.235808 0-174.551478 78.294181-174.551478 174.508499 0 96.235808 78.31567 174.529989 174.551478 174.529989s174.508499-78.294181 174.508499-174.529989C667.920142 217.541595 589.647451 139.247414 493.411643 139.247414z" p-id="5975"></path><path d="M96.92347 950.919565c-18.264992 0-33.083489-14.818497-33.083489-33.083489 0-236.863662 192.686511-429.550173 429.571662-429.550173 104.808044 0 205.739804 38.188764 284.22739 107.521852 13.699 12.0832 14.991436 32.997532 2.929726 46.696532-12.147668 13.72049-33.040511 14.925944-46.696532 2.885723-66.425875-58.650795-151.806451-90.937129-240.460584-90.937129-200.398146 0-363.404684 163.006538-363.404684 363.383194C130.007983 936.101067 115.188462 950.919565 96.92347 950.919565z" p-id="5976"></path><path d="M927.075507 837.861626 701.003632 837.861626c-18.264992 0-33.083489-14.818497-33.083489-33.083489s14.818497-33.083489 33.083489-33.083489l226.071875 0c18.264992 0 33.083489 14.818497 33.083489 33.083489S945.340499 837.861626 927.075507 837.861626z" p-id="5977"></path><path d="M814.040081 950.898075c-18.264992 0-33.083489-14.818497-33.083489-33.083489L780.956591 691.741687c0-18.264992 14.818497-33.083489 33.083489-33.083489s33.083489 14.818497 33.083489 33.083489l0 226.071875C847.12357 936.079578 832.305073 950.898075 814.040081 950.898075z" p-id="5978"></path></svg>