<?xml version="1.0" standalone="no"?><!DOCTYPE svg PUBLIC "-//W3C//DTD SVG 1.1//EN" "http://www.w3.org/Graphics/SVG/1.1/DTD/svg11.dtd"><svg t="1558852231645" class="icon" style="" viewBox="0 0 1024 1024" version="1.1" xmlns="http://www.w3.org/2000/svg" p-id="6060" xmlns:xlink="http://www.w3.org/1999/xlink" width="200" height="200"><defs><style type="text/css"></style></defs><path d="M353.28 535.893333a213.333333 213.333333 0 1 0-213.333333-213.333333 213.333333 213.333333 0 0 0 213.333333 213.333333z m0-372.053333a157.866667 157.866667 0 1 1-155.306667 157.44 156.586667 156.586667 0 0 1 155.306667-157.44z m454.4 377.6a153.173333 153.173333 0 1 0-103.68 5.546667 235.52 235.52 0 0 0-122.88 85.333333A331.52 331.52 0 0 0 21.333333 872.96v44.373333H682.666667v-26.88-17.493333a341.333333 341.333333 0 0 0-5.12-59.306667h321.706666v-27.306666a111.786667 111.786667 0 0 0 0-11.946667 236.8 236.8 0 0 0-191.573333-232.96z m-156.586667-142.933333a97.28 97.28 0 1 1 97.28 98.133333 98.133333 98.133333 0 0 1-97.28-98.133333zM77.653333 860.16a275.626667 275.626667 0 0 1 550.4 0z m585.813334-103.68a334.506667 334.506667 0 0 0-42.666667-81.493333 178.346667 178.346667 0 0 1 325.973333 81.493333z" p-id="6061"></path></svg>