<?xml version="1.0" encoding="utf-8"?>
<!-- Generator: Adobe Illustrator 24.0.1, SVG Export Plug-In . SVG Version: 6.00 Build 0)  -->
<svg version="1.1" id="图层_1" xmlns="http://www.w3.org/2000/svg" xmlns:xlink="http://www.w3.org/1999/xlink" x="0px" y="0px"
	 viewBox="0 0 456 262.1" style="enable-background:new 0 0 456 262.1;" xml:space="preserve">
<style type="text/css">
	.st0{opacity:0.4;fill:url(#SVGID_1_);enable-background:new    ;}
	.st1{opacity:0.7;}
	.st2{opacity:0.4;fill:url(#SVGID_2_);enable-background:new    ;}
	.st3{opacity:0.4;fill:url(#SVGID_3_);enable-background:new    ;}
	.st4{opacity:0.4;fill:url(#SVGID_4_);enable-background:new    ;}
	.st5{opacity:0.4;fill:url(#SVGID_5_);enable-background:new    ;}
	.st6{opacity:0.6;}
	.st7{fill:#0073CD;}
	.st8{fill:#40A8F5;}
	.st9{fill:#53B9F5;}
	.st10{fill:#85D3FF;}
	.st11{fill:#8CD7FF;}
	.st12{fill:#EBFCFF;}
	.st13{fill:none;stroke:url(#SVGID_6_);stroke-width:2;stroke-miterlimit:10;}
	.st14{fill:none;stroke:url(#SVGID_7_);stroke-width:2;stroke-miterlimit:10;}
	.st15{fill:none;stroke:url(#SVGID_8_);stroke-width:2;stroke-miterlimit:10;}
	.st16{fill:none;stroke:url(#SVGID_9_);stroke-width:2;stroke-miterlimit:10;}
	.st17{fill:none;stroke:url(#SVGID_10_);stroke-width:2;stroke-miterlimit:10;}
	.st18{fill:none;stroke:url(#SVGID_11_);stroke-width:2;stroke-miterlimit:10;}
</style>
<title>升级中</title>
<g id="图层_2_1_">
	<g id="图层_1-2">
		
			<linearGradient id="SVGID_1_" gradientUnits="userSpaceOnUse" x1="232.745" y1="39.57" x2="232.745" y2="1.88" gradientTransform="matrix(1 0 0 -1 0 264)">
			<stop  offset="0" style="stop-color:#81CFFF"/>
			<stop  offset="1" style="stop-color:#5ECFFF;stop-opacity:0"/>
		</linearGradient>
		<path class="st0" d="M412.3,262.1c-23-23-61-37.7-179.5-37.7S76.2,239.1,53.2,262.1H412.3z"/>
		<g class="st1">
			
				<linearGradient id="SVGID_2_" gradientUnits="userSpaceOnUse" x1="349.365" y1="237.3224" x2="349.365" y2="59.9676" gradientTransform="matrix(1 0 0 -1 0 264)">
				<stop  offset="0" style="stop-color:#81CFFF"/>
				<stop  offset="1" style="stop-color:#5ECFFF;stop-opacity:0"/>
			</linearGradient>
			<path class="st2" d="M380.7,26.7h-62.6c-1.5-0.1-2.8,1.1-2.8,2.6v172.2c0.1,1.5,1.3,2.7,2.8,2.6h62.6c1.5,0.1,2.7-1.1,2.8-2.6
				V29.3C383.4,27.8,382.2,26.6,380.7,26.7z M328.3,147c0,0.5-0.4,0.9-0.9,0.9c0,0,0,0,0,0h-3.6c-0.5,0-0.9-0.4-0.9-0.8c0,0,0,0,0,0
				v-19.7c0-0.5,0.4-0.9,0.9-0.9c0,0,0,0,0,0h3.6c0.5,0,0.9,0.4,0.9,0.9c0,0,0,0,0,0V147z M328.3,116.8c0,0.5-0.4,0.9-0.9,0.9
				c0,0,0,0,0,0h-3.6c-0.5,0-0.9-0.4-0.9-0.9c0,0,0,0,0,0V97c0-0.5,0.4-0.9,0.9-0.9c0,0,0,0,0,0h3.6c0.5,0,0.9,0.4,0.9,0.9
				c0,0,0,0,0,0V116.8z M328.3,86.5c0,0.5-0.4,0.9-0.9,0.9c0,0,0,0,0,0h-3.6c-0.5,0-0.9-0.4-0.9-0.9c0,0,0,0,0,0V66.8
				c0-0.5,0.4-0.9,0.9-0.9c0,0,0,0,0,0h3.6c0.5,0,0.9,0.4,0.9,0.9c0,0,0,0,0,0V86.5z M328.3,56.3c0,0.5-0.4,0.9-0.9,0.9c0,0,0,0,0,0
				h-3.6c-0.5,0-0.9-0.4-0.9-0.9c0,0,0,0,0,0V36.6c0-0.5,0.4-0.9,0.9-0.9c0,0,0,0,0,0h3.6c0.5,0,0.9,0.4,0.9,0.9c0,0,0,0,0,0V56.3z
				 M340,147c0,0.5-0.4,0.9-0.9,0.9c0,0,0,0,0,0h-3.6c-0.5,0-0.9-0.4-0.9-0.9c0,0,0,0,0,0v-19.7c0-0.5,0.4-0.9,1-0.9h3.6
				c0.5,0,0.9,0.4,0.9,0.9V147z M340,116.8c0,0.5-0.4,0.9-0.9,0.9h-3.6c-0.5,0-0.9-0.4-1-0.9V97c0-0.5,0.4-0.9,1-0.9h3.6
				c0.5,0,0.9,0.4,0.9,0.9V116.8z M340,86.5c0,0.5-0.4,0.9-0.9,0.9h-3.6c-0.5,0-0.9-0.4-1-0.9V66.8c0-0.5,0.4-0.9,1-0.9h3.6
				c0.5,0,0.9,0.4,0.9,0.9V86.5z M340,56.3c0,0.5-0.4,0.9-0.9,0.9h-3.6c-0.5,0-0.9-0.4-1-0.9V36.6c0-0.5,0.4-0.9,1-0.9h3.6
				c0.5,0,0.9,0.4,0.9,0.9V56.3z M351.7,147c0,0.5-0.4,0.9-0.9,0.9c0,0,0,0,0,0h-3.6c-0.5,0-0.9-0.4-0.9-0.9c0,0,0,0,0,0v-19.7
				c0-0.5,0.4-0.9,0.9-0.9h3.6c0.5,0,0.9,0.4,0.9,0.9V147z M351.7,116.8c0,0.5-0.4,0.9-0.9,0.9h-3.6c-0.5,0-0.9-0.4-0.9-0.9V97
				c0-0.5,0.4-0.9,0.9-0.9h3.6c0.5,0,0.9,0.4,0.9,0.9V116.8z M351.7,86.5c0,0.5-0.4,0.9-0.9,0.9h-3.6c-0.5,0-0.9-0.4-0.9-0.9V66.8
				c0-0.5,0.4-0.9,0.9-0.9h3.6c0.5,0,0.9,0.4,0.9,0.9V86.5z M351.7,56.3c0,0.5-0.4,0.9-0.9,0.9h-3.6c-0.5,0-0.9-0.4-0.9-0.9V36.6
				c0-0.5,0.4-0.9,0.9-0.9h3.6c0.5,0,0.9,0.4,0.9,0.9V56.3z M363.4,147c0,0.5-0.4,0.9-0.9,0.9c0,0,0,0,0,0h-3.6
				c-0.5,0-0.9-0.4-0.9-0.9c0,0,0,0,0,0v-19.7c0-0.5,0.4-0.9,0.9-0.9h3.6c0.5,0,0.9,0.4,0.9,0.9V147z M363.4,116.8
				c0,0.5-0.4,0.9-0.9,0.9h-3.6c-0.5,0-0.9-0.4-0.9-0.9V97c0-0.5,0.4-0.9,0.9-0.9h3.6c0.5,0,0.9,0.4,0.9,0.9V116.8z M363.4,86.5
				c0,0.5-0.4,0.9-0.9,0.9h-3.6c-0.5,0-0.9-0.4-0.9-0.9V66.8c0-0.5,0.4-0.9,0.9-0.9h3.6c0.5,0,0.9,0.4,0.9,0.9V86.5z M363.4,56.3
				c0,0.5-0.4,0.9-0.9,0.9h-3.6c-0.5,0-0.9-0.4-0.9-0.9V36.6c0-0.5,0.4-0.9,0.9-0.9h3.6c0.5,0,0.9,0.4,0.9,0.9V56.3z M375.1,147
				c0,0.5-0.4,0.9-0.9,0.9c0,0,0,0,0,0h-3.6c-0.5,0-0.9-0.4-0.9-0.9c0,0,0,0,0,0v-19.7c0-0.5,0.4-0.9,0.9-0.9h3.6
				c0.5,0,0.9,0.4,1,0.9V147z M375.1,116.8c0,0.5-0.4,0.9-1,0.9h-3.6c-0.5,0-0.9-0.4-0.9-0.9V97c0-0.5,0.4-0.9,0.9-0.9h3.6
				c0.5,0,0.9,0.4,1,0.9V116.8z M375.1,86.5c0,0.5-0.4,0.9-1,0.9h-3.6c-0.5,0-0.9-0.4-0.9-0.9V66.8c0-0.5,0.4-0.9,0.9-0.9h3.6
				c0.5,0,0.9,0.4,1,0.9V86.5z M375.1,56.3c0,0.5-0.4,0.9-1,0.9h-3.6c-0.5,0-0.9-0.4-0.9-0.9V36.6c0-0.5,0.4-0.9,0.9-0.9h3.6
				c0.5,0,0.9,0.4,1,0.9V56.3z"/>
			
				<linearGradient id="SVGID_3_" gradientUnits="userSpaceOnUse" x1="201.46" y1="208.3924" x2="201.46" y2="59.9976" gradientTransform="matrix(1 0 0 -1 0 264)">
				<stop  offset="0" style="stop-color:#81CFFF"/>
				<stop  offset="1" style="stop-color:#5ECFFF;stop-opacity:0"/>
			</linearGradient>
			<path class="st3" d="M231.1,55.6h-59.3c-1.5-0.1-2.7,1.1-2.8,2.6v143.2c0.1,1.5,1.3,2.6,2.8,2.6h59.3c1.5,0.1,2.8-1.1,2.8-2.6
				V58.2C233.9,56.7,232.6,55.5,231.1,55.6z M182.5,159.4c0,0.6-0.6,1.1-1.2,1.1h-5.4c-0.6,0-1.2-0.5-1.2-1.1v-5.2
				c0-0.6,0.6-1.1,1.2-1.1c0,0,0,0,0,0h5.4c0.6,0,1.2,0.5,1.2,1.1c0,0,0,0,0,0V159.4z M182.5,146.5c0,0.6-0.6,1.1-1.2,1.1
				c0,0,0,0,0,0h-5.4c-0.6,0-1.2-0.5-1.2-1.1c0,0,0,0,0,0v-5.2c0-0.6,0.6-1.1,1.2-1.1h5.4c0.6,0,1.2,0.5,1.2,1.1V146.5z
				 M182.5,133.6c0,0.6-0.6,1.1-1.2,1.1h-5.4c-0.6,0-1.2-0.5-1.2-1.1v-5.2c0-0.6,0.6-1.1,1.2-1.1c0,0,0,0,0,0h5.4
				c0.6,0,1.2,0.5,1.2,1.1c0,0,0,0,0,0V133.6z M182.5,120.7c0,0.6-0.6,1.1-1.2,1.1c0,0,0,0,0,0h-5.4c-0.6,0-1.2-0.5-1.2-1.1
				c0,0,0,0,0,0v-5.2c0-0.6,0.6-1.1,1.2-1.1h5.4c0.6,0,1.2,0.5,1.2,1.1V120.7z M182.5,107.8c0,0.6-0.6,1.1-1.2,1.1h-5.4
				c-0.6,0-1.2-0.5-1.2-1.1v-5.2c0-0.6,0.6-1.1,1.2-1.1c0,0,0,0,0,0h5.4c0.6,0,1.2,0.5,1.2,1.1c0,0,0,0,0,0V107.8z M182.5,94.9
				c0,0.6-0.6,1.1-1.2,1.1c0,0,0,0,0,0h-5.4c-0.6,0-1.2-0.5-1.2-1.1c0,0,0,0,0,0v-5.2c0-0.6,0.6-1.1,1.2-1.1h5.4
				c0.6,0,1.2,0.5,1.2,1.1V94.9z M182.5,82.1c0,0.6-0.6,1.1-1.2,1.1h-5.4c-0.6,0-1.2-0.5-1.2-1.1v-5.2c0-0.6,0.6-1.1,1.2-1.1
				c0,0,0,0,0,0h5.4c0.6,0,1.2,0.5,1.2,1.1c0,0,0,0,0,0V82.1z M182.5,69.2c0,0.6-0.6,1.1-1.2,1.1c0,0,0,0,0,0h-5.4
				c-0.6,0-1.2-0.5-1.2-1.1c0,0,0,0,0,0V64c0-0.6,0.6-1.1,1.2-1.1h5.4c0.6,0,1.2,0.5,1.2,1.1V69.2z M192.6,159.4
				c0,0.6-0.6,1.1-1.2,1.1H186c-0.6,0-1.2-0.5-1.2-1.1c0,0,0,0,0,0v-5.2c0-0.6,0.6-1.1,1.2-1.1h5.4c0.6,0,1.2,0.5,1.2,1.1
				c0,0,0,0,0,0L192.6,159.4z M192.6,146.5c0,0.6-0.6,1.1-1.2,1.1c0,0,0,0,0,0H186c-0.6,0-1.2-0.5-1.2-1.1v-5.2
				c0-0.6,0.6-1.1,1.2-1.1c0,0,0,0,0,0h5.4c0.6,0,1.2,0.5,1.2,1.1L192.6,146.5z M192.6,133.6c0,0.6-0.6,1.1-1.2,1.1H186
				c-0.6,0-1.2-0.5-1.2-1.1c0,0,0,0,0,0v-5.2c0-0.6,0.6-1.1,1.2-1.1h5.4c0.6,0,1.2,0.5,1.2,1.1c0,0,0,0,0,0L192.6,133.6z
				 M192.6,120.7c0,0.6-0.6,1.1-1.2,1.1c0,0,0,0,0,0H186c-0.6,0-1.2-0.5-1.2-1.1v-5.2c0-0.6,0.6-1.1,1.2-1.1c0,0,0,0,0,0h5.4
				c0.6,0,1.2,0.5,1.2,1.1L192.6,120.7z M192.6,107.8c0,0.6-0.6,1.1-1.2,1.1H186c-0.6,0-1.2-0.5-1.2-1.1c0,0,0,0,0,0v-5.2
				c0-0.6,0.6-1.1,1.2-1.1c0,0,0,0,0,0h5.4c0.6,0,1.2,0.5,1.2,1.1c0,0,0,0,0,0L192.6,107.8z M192.6,94.9c0,0.6-0.6,1.1-1.2,1.1
				c0,0,0,0,0,0H186c-0.6,0-1.2-0.5-1.2-1.1v-5.2c0-0.6,0.6-1.1,1.2-1.1c0,0,0,0,0,0h5.4c0.6,0,1.2,0.5,1.2,1.1L192.6,94.9z
				 M192.6,82.1c0,0.6-0.6,1.1-1.2,1.1H186c-0.6,0-1.2-0.5-1.2-1.1c0,0,0,0,0,0v-5.2c0-0.6,0.6-1.1,1.2-1.1c0,0,0,0,0,0h5.4
				c0.6,0,1.2,0.5,1.2,1.1c0,0,0,0,0,0L192.6,82.1z M192.6,69.2c0,0.6-0.6,1.1-1.2,1.1c0,0,0,0,0,0H186c-0.6,0-1.2-0.5-1.2-1.1V64
				c0-0.6,0.5-1.2,1.2-1.2c0,0,0,0,0,0h5.4c0.6,0,1.2,0.5,1.2,1.1L192.6,69.2z M202.6,159.4c0,0.6-0.6,1.1-1.2,1.1c0,0,0,0,0,0H196
				c-0.6,0-1.2-0.5-1.2-1.1v-5.2c0-0.6,0.6-1.1,1.2-1.1c0,0,0,0,0,0h5.4c0.6,0,1.2,0.5,1.2,1.1L202.6,159.4z M202.6,146.5
				c0,0.6-0.6,1.1-1.2,1.1H196c-0.6,0-1.2-0.5-1.2-1.1c0,0,0,0,0,0v-5.2c0-0.6,0.6-1.1,1.2-1.1h5.4c0.6,0,1.2,0.5,1.2,1.1
				c0,0,0,0,0,0L202.6,146.5z M202.6,133.6c0,0.6-0.6,1.1-1.2,1.1c0,0,0,0,0,0H196c-0.6,0-1.2-0.5-1.2-1.1v-5.2
				c0-0.6,0.6-1.1,1.2-1.1c0,0,0,0,0,0h5.4c0.6,0,1.2,0.5,1.2,1.1L202.6,133.6z M202.6,120.7c0,0.6-0.6,1.1-1.2,1.1H196
				c-0.6,0-1.2-0.5-1.2-1.1c0,0,0,0,0,0v-5.2c0-0.6,0.6-1.1,1.2-1.1h5.4c0.6,0,1.2,0.5,1.2,1.1c0,0,0,0,0,0L202.6,120.7z
				 M202.6,107.8c0,0.6-0.6,1.1-1.2,1.1c0,0,0,0,0,0H196c-0.6,0-1.2-0.5-1.2-1.1v-5.2c0-0.6,0.6-1.1,1.2-1.1c0,0,0,0,0,0h5.4
				c0.6,0,1.2,0.5,1.2,1.1c0,0,0,0,0,0L202.6,107.8z M202.6,94.9c0,0.6-0.6,1.1-1.2,1.1H196c-0.6,0-1.2-0.5-1.2-1.1c0,0,0,0,0,0
				v-5.2c0-0.6,0.6-1.1,1.2-1.1h5.4c0.6,0,1.2,0.5,1.2,1.1c0,0,0,0,0,0L202.6,94.9z M202.6,82.1c0,0.6-0.6,1.1-1.2,1.1c0,0,0,0,0,0
				H196c-0.6,0-1.2-0.5-1.2-1.1v-5.2c0-0.6,0.6-1.1,1.2-1.1c0,0,0,0,0,0h5.4c0.6,0,1.2,0.5,1.2,1.1c0,0,0,0,0,0L202.6,82.1z
				 M202.6,69.2c0,0.6-0.6,1.1-1.2,1.1H196c-0.6,0-1.2-0.5-1.2-1.1c0,0,0,0,0,0V64c0-0.6,0.6-1.1,1.2-1.1h5.4c0.6,0,1.2,0.4,1.2,1.1
				c0,0,0,0,0,0V69.2z M227.8,159.4c0,0.6-0.6,1.1-1.2,1.1h-20.5c-0.6,0-1.2-0.5-1.2-1.1v-5.2c0-0.6,0.6-1.1,1.2-1.1c0,0,0,0,0,0
				h20.5c0.6,0,1.2,0.5,1.2,1.1c0,0,0,0,0,0L227.8,159.4z M227.8,146.5c0,0.6-0.6,1.1-1.2,1.1c0,0,0,0,0,0h-20.5
				c-0.6,0-1.2-0.5-1.2-1.1c0,0,0,0,0,0v-5.2c0-0.6,0.6-1.1,1.2-1.1h20.5c0.6,0,1.2,0.5,1.2,1.1L227.8,146.5z M227.8,133.6
				c0,0.6-0.6,1.1-1.2,1.1h-20.5c-0.6,0-1.2-0.5-1.2-1.1v-5.2c0-0.6,0.6-1.1,1.2-1.1c0,0,0,0,0,0h20.5c0.6,0,1.2,0.5,1.2,1.1
				c0,0,0,0,0,0L227.8,133.6z M227.8,120.7c0,0.6-0.6,1.1-1.2,1.1c0,0,0,0,0,0h-20.5c-0.6,0-1.2-0.5-1.2-1.1c0,0,0,0,0,0v-5.2
				c0-0.6,0.6-1.1,1.2-1.1h20.5c0.6,0,1.2,0.5,1.2,1.1L227.8,120.7z M227.8,107.8c0,0.6-0.6,1.1-1.2,1.1h-20.5
				c-0.6,0-1.2-0.5-1.2-1.1v-5.2c0-0.6,0.6-1.1,1.2-1.1c0,0,0,0,0,0h20.5c0.6,0,1.2,0.5,1.2,1.1c0,0,0,0,0,0L227.8,107.8z
				 M227.8,94.9c0,0.6-0.6,1.1-1.2,1.1c0,0,0,0,0,0h-20.5c-0.6,0-1.2-0.5-1.2-1.1c0,0,0,0,0,0v-5.2c0-0.6,0.6-1.1,1.2-1.1h20.5
				c0.6,0,1.2,0.5,1.2,1.1L227.8,94.9z M227.8,82.1c0,0.6-0.6,1.1-1.2,1.1h-20.5c-0.6,0-1.2-0.5-1.2-1.1v-5.2c0-0.6,0.6-1.1,1.2-1.1
				c0,0,0,0,0,0h20.5c0.6,0,1.2,0.5,1.2,1.1c0,0,0,0,0,0L227.8,82.1z M227.8,69.2c0,0.6-0.6,1.1-1.2,1.1c0,0,0,0,0,0h-20.5
				c-0.6,0-1.2-0.5-1.2-1.1c0,0,0,0,0,0V64c0-0.6,0.6-1.1,1.2-1.1h20.5c0.6,0,1.2,0.5,1.2,1.1L227.8,69.2z"/>
			
				<linearGradient id="SVGID_4_" gradientUnits="userSpaceOnUse" x1="122.975" y1="237.3228" x2="122.975" y2="59.9971" gradientTransform="matrix(1 0 0 -1 0 264)">
				<stop  offset="0" style="stop-color:#81CFFF"/>
				<stop  offset="1" style="stop-color:#5ECFFF;stop-opacity:0"/>
			</linearGradient>
			<path class="st4" d="M161.1,26.7H84.8c-1.5-0.1-2.8,1.1-2.8,2.6c0,0,0,0,0,0v172.2c0.1,1.5,1.3,2.6,2.8,2.6h76.3
				c1.5,0.1,2.8-1.1,2.8-2.6V29.3C163.9,27.8,162.6,26.6,161.1,26.7z M154.3,161c0,0.6-0.6,1.1-1.2,1.1H92.8c-0.6,0-1.2-0.5-1.2-1.1
				c0,0,0,0,0,0v-5.2c0-0.6,0.6-1.1,1.2-1.1c0,0,0,0,0,0h60.3c0.6,0,1.2,0.5,1.2,1.1c0,0,0,0,0,0V161z M154.3,146.3
				c0,0.6-0.6,1.1-1.2,1.1c0,0,0,0,0,0H92.8c-0.6,0-1.2-0.5-1.2-1.1v-5.2c0-0.6,0.6-1.1,1.2-1.1c0,0,0,0,0,0h60.3
				c0.6,0,1.2,0.5,1.2,1.1V146.3z M154.3,131.6c0,0.6-0.6,1.1-1.2,1.1H92.8c-0.6,0-1.2-0.5-1.2-1.1c0,0,0,0,0,0v-5.2
				c0-0.6,0.6-1.1,1.2-1.1h60.3c0.6,0,1.2,0.5,1.2,1.1c0,0,0,0,0,0V131.6z M154.3,117c0,0.6-0.6,1.1-1.2,1.1H92.8
				c-0.6,0-1.2-0.5-1.2-1.1c0,0,0,0,0,0v-5.2c0-0.6,0.6-1.1,1.2-1.1c0,0,0,0,0,0h60.3c0.6,0,1.2,0.5,1.2,1.1c0,0,0,0,0,0V117z
				 M154.3,102.3c0,0.6-0.6,1.1-1.2,1.1c0,0,0,0,0,0H92.8c-0.6,0-1.2-0.5-1.2-1.1V97c0-0.6,0.6-1.1,1.2-1.1c0,0,0,0,0,0h60.3
				c0.6,0,1.2,0.5,1.2,1.1V102.3z M154.3,87.6c0,0.6-0.6,1.1-1.2,1.1H92.8c-0.6,0-1.2-0.5-1.2-1.1c0,0,0,0,0,0v-5.3
				c0-0.6,0.6-1.1,1.2-1.1h60.3c0.6,0,1.2,0.5,1.2,1.1c0,0,0,0,0,0V87.6z M154.3,72.9c0,0.6-0.6,1.1-1.2,1.1H92.8
				c-0.6,0-1.2-0.5-1.2-1.1c0,0,0,0,0,0v-5.3c0-0.6,0.6-1.1,1.2-1.1c0,0,0,0,0,0h60.3c0.6,0,1.2,0.5,1.2,1.1c0,0,0,0,0,0V72.9z
				 M154.3,58.3c0,0.6-0.6,1.1-1.2,1.1c0,0,0,0,0,0H92.8c-0.6,0-1.2-0.5-1.2-1.1V53c0-0.6,0.6-1.1,1.2-1.1c0,0,0,0,0,0h60.3
				c0.6,0,1.2,0.5,1.2,1.1V58.3z M154.3,43.6c0,0.6-0.6,1.1-1.2,1.1H92.8c-0.6,0-1.2-0.5-1.2-1.1c0,0,0,0,0,0v-5.3
				c0-0.6,0.6-1.1,1.2-1.1h60.3c0.6,0,1.2,0.5,1.2,1.1c0,0,0,0,0,0V43.6z"/>
			
				<linearGradient id="SVGID_5_" gradientUnits="userSpaceOnUse" x1="273.51" y1="264" x2="273.51" y2="54.46" gradientTransform="matrix(1 0 0 -1 0 264)">
				<stop  offset="0" style="stop-color:#81CFFF"/>
				<stop  offset="1" style="stop-color:#5ECFFF;stop-opacity:0"/>
			</linearGradient>
			<path class="st5" d="M306.2,0h-65.4c-1.4,0-2.5,1.2-2.4,2.6v204.4c-0.1,1.4,1,2.5,2.4,2.6c0,0,0,0,0,0h65.4
				c1.4-0.1,2.5-1.2,2.4-2.6V2.6C308.7,1.2,307.6,0.1,306.2,0z M300.4,119.6c0,0.6-0.4,1.1-1,1.1h-51.7c-0.6,0-1-0.5-1-1.1v-5.2
				c0-0.6,0.4-1.1,1-1.1h51.7c0.6,0,1,0.5,1,1.1L300.4,119.6z M300.4,90.3c0,0.6-0.4,1.1-1,1.1h-51.7c-0.6,0-1-0.5-1-1.1V85
				c0-0.6,0.4-1.1,1-1.1h51.7c0.6,0,1,0.5,1,1.1L300.4,90.3z M300.4,60.9c0,0.6-0.4,1.1-1,1.1h-51.7c-0.6,0-1-0.5-1-1.1v-5.2
				c0-0.6,0.4-1.1,1-1.1h51.7c0.6,0,1,0.5,1,1.1L300.4,60.9z M300.4,31.5c0,0.6-0.4,1.1-1,1.1h-51.7c-0.6,0-1-0.5-1-1.1v-5.2
				c0-0.6,0.4-1.1,1-1.1h51.7c0.6,0,1,0.5,1,1.1L300.4,31.5z M300.4,16.9c0,0.6-0.4,1.1-1,1.1h-51.7c-0.6,0-1-0.5-1-1.1v-5.2
				c0-0.6,0.4-1.1,1-1.1h51.7c0.6,0,1,0.5,1,1.1L300.4,16.9z"/>
		</g>
		<g class="st6">
			<path class="st7" d="M244.2,130.7c3.3,1.9,5.7,13.6,1,20.7c-5.3,6.8-7,9-6.1,14c-4.3-7.3-0.6-7.4-5.8-14.2
				c-4.6-6.2-2.5-17.4,0.7-20.5C237.4,131.3,240.8,131.3,244.2,130.7L244.2,130.7z"/>
			<path class="st8" d="M280.4,211.9c-0.1,0.6-0.1,1.2-0.1,1.7c0,0.7,0.1,1.3,0.2,2c-2.1-0.8-4.3-1.2-6.5-1.2
				c-2.6,0-5.2,0.6-7.5,1.7c-0.8-4.2-4.8-7-9-6.2c-2.8,0.5-5,2.5-5.9,5.2c-3.4-2.1-7.7-2-11.1,0.1c-0.4-5.7-4.1-0.8-9.8-0.8
				c-6,0-11.8-4.4-11.8,1.7c0,1.1,0.2,2.2,0.4,3.2c-1.1,0.1-2.1,0.5-3,1c-0.9-7-6.8-12.4-13.9-12.7c22.6-10.3,22.4-44.6,24.8-74.6
				c0.1-1.7,1.2-4.1,1.8-4.4l0,0c1.5,1.1,3.2,1.8,5.1,2.1c-3.2,3.1-5.4,14.3-0.7,20.5c5.3,6.8,1.6,6.9,5.8,14.2
				c-0.9-5,0.8-7.2,6.1-14c4.8-7.2,2.3-18.8-1-20.7c1.8-0.3,3.6-1,5.1-2.1l0,0c0.6,0.3,1.7,2.7,1.8,4.4
				C253.6,164.6,250.4,198.5,280.4,211.9z"/>
			<path class="st9" d="M303.3,203.2c-5.4,0-9.8,4.4-9.8,9.8c0,0.3,0,0.6,0,0.9c-1.5-1.7-3.7-2.6-6-2.5c-0.7,0-1.4,0.1-2.1,0.3
				c0.7-1.3,1.1-2.8,1.1-4.3c-0.1-4.6-3.9-8.3-8.5-8.2c-4,0.1-7.4,3-8.1,6.9c-0.1,0.4-0.1,0.9-0.1,1.3c0,0.5,0,1,0.1,1.6
				c-3.5-1.4-7.4-1.3-10.8,0.4c-0.7-3.2-3.9-5.3-7.2-4.6c-2,0.4-3.6,1.9-4.3,3.8c-1.3-0.8-2.7-1.2-4.2-1.2c-1.5,0-3.1,0.4-4.4,1.3
				c-0.2-4.6-4.1-8.2-8.7-8s-8.2,4.1-8,8.7l0,0c0,0.8,0.1,1.7,0.3,2.5c-0.8,0.1-1.6,0.4-2.3,0.8c-0.7-5.4-5.2-9.6-10.7-9.8h-0.4
				c-3.4,0-6.7,1.6-8.8,4.3c-3-6.2-10.4-8.9-16.7-5.9c-2.9,1.4-5.2,3.9-6.3,7c4.1,3,6.6,7.8,6.6,12.9c0,2.3-0.5,4.6-1.5,6.6
				c2-2.2,4.8-3.4,7.8-3.4c0.9,0,1.8,0.1,2.7,0.3c-2.9-5-1.2-11.5,3.8-14.4c1.2-0.7,2.6-1.2,3.9-1.3c0.5-0.1,0.9-0.1,1.4-0.1
				c5.8,0,10.6,4.7,10.6,10.6l0,0c0,0.6-0.1,1.3-0.2,1.9c4.4-1.7,9.3-1.6,13.6,0.4c0.9-4.1,4.9-6.7,9-5.8c2.6,0.6,4.7,2.4,5.5,4.9
				c1.6-0.9,3.5-1.4,5.3-1.4c1.9,0,3.8,0.5,5.4,1.5l0.1,0.1c0.3-4.5,3.6-8.4,8-9.4c0.8-0.2,1.7-0.3,2.5-0.3
				c5.8,0,10.6,4.7,10.6,10.6c0,1-0.2,2-0.4,3c1.1,0.1,2.1,0.5,3,1c1-7,7-12.1,14-12.1c1.5,0,3,0.2,4.4,0.7c2.6,0.8,5,2.5,6.7,4.6
				c2.4-4.8,7-8.2,12.4-8.8C311.4,205.9,307.6,203.2,303.3,203.2z"/>
			<path class="st10" d="M314.4,209.9c-0.6,0-1.2,0-1.8,0.1c-5.4,0.6-10.1,3.9-12.5,8.7c-1.7-2.2-4-3.8-6.7-4.6
				c-1.4-0.5-2.9-0.7-4.4-0.7c-7,0-13,5.2-14,12.1c-0.9-0.5-1.9-0.9-3-1c0.3-1,0.4-2,0.4-3c0-5.8-4.7-10.5-10.5-10.5
				c-0.8,0-1.7,0.1-2.5,0.3c-4.4,1.1-7.7,4.9-8,9.4l-0.1-0.1c-1.6-1-3.5-1.5-5.4-1.5c-1.9,0-3.7,0.5-5.3,1.4c-1.4-3.9-5.7-6-9.6-4.6
				c-2.5,0.9-4.3,3-4.9,5.5c-4.3-2-9.2-2.1-13.6-0.4c0.1-0.6,0.2-1.3,0.2-1.9c0-5.8-4.7-10.6-10.6-10.6l0,0c-0.5,0-0.9,0-1.4,0.1
				c-5.8,0.8-9.9,6.1-9.1,11.8c0.2,1.4,0.6,2.7,1.3,3.9c-0.9-0.2-1.8-0.3-2.7-0.3c-2.9,0-5.8,1.2-7.8,3.4c1-2.1,1.5-4.3,1.5-6.6
				c0-5.1-2.4-9.9-6.6-12.9l0,0c-7.1-5.2-17-3.6-22.2,3.5c-5.2,7.1-3.6,17,3.5,22.2c6.8,5,16.4,3.7,21.7-2.8
				c-2.1,5.5,0.7,11.6,6.1,13.6c5.5,2.1,11.6-0.7,13.6-6.1c0.5-1.2,0.7-2.5,0.7-3.7c0-1.9,0.4-0.1,0.4,2.7c0,9.7,7.8,17.6,17.5,17.6
				c9.7,0,17.6-7.8,17.6-17.5c0-2.4-0.5-4.8-1.4-7l0.5-0.1c0.5,5.8,5.7,10.1,11.5,9.5c5-0.5,9-4.4,9.5-9.4c1.7,1,3.6,1.6,5.5,1.6
				c0.6,0,1.2,0,1.7-0.1v0.1c0,4.2,3.4,7.6,7.6,7.5c2.6,0,5-1.4,6.4-3.6c4.7,6.3,13.5,7.5,19.8,2.9c1.5-1.1,2.8-2.5,3.7-4.2
				c4.9,7.3,14.8,9.1,22.1,4.2s9.1-14.8,4.2-22.1C324.5,212.5,319.6,209.9,314.4,209.9L314.4,209.9z"/>
		</g>
		<path class="st11" d="M239.1,70c6.4,0,11.6,5.2,11.6,11.6c0,6.4-5.2,11.6-11.6,11.6c-6.4,0-11.6-5.2-11.6-11.6c0,0,0,0,0,0
			C227.5,75.2,232.7,70,239.1,70z"/>
		<path class="st8" d="M239.1,137.2c8.3,0,13.5-1.7,16.6-7.9c0,3.2-1.5,6.2-4.1,8.1c-1.9,1.3-4,2.2-6.2,2.6c-4.1,0.8-8.4,0.8-12.5,0
			c-2.2-0.4-4.3-1.3-6.2-2.6c-2.6-1.9-4.2-4.9-4.2-8.1C225.6,135.5,230.7,137.2,239.1,137.2z"/>
		<path class="st8" d="M288.4,151.7c0,0.5-0.3,0.8-0.8,0.8c-0.3,0-0.5-0.1-0.7-0.3c-7.6-10.3-25.5-25-30.4-24.7
			c2.4-6.1,3.4-15.9,3.6-31.2C271.5,100.3,288.3,122.4,288.4,151.7z"/>
		<path class="st8" d="M218.1,96.3c0.3,15.2,1.2,25,3.6,31.1l-0.2,0.1c-4.9-0.3-22.8,14.5-30.4,24.7c-0.3,0.4-0.8,0.5-1.1,0.2
			c-0.2-0.2-0.4-0.4-0.3-0.7C189.7,122.3,206.6,100.2,218.1,96.3L218.1,96.3z"/>
		<path class="st8" d="M250.7,81.6c0-6.4-5.2-11.6-11.6-11.6c-6.4,0-11.6,5.2-11.6,11.6s5.2,11.6,11.6,11.6l0,0
			C245.5,93.2,250.7,88,250.7,81.6z M252.9,81.6c0,7.6-6.2,13.8-13.8,13.8c-7.6,0-13.8-6.2-13.8-13.8c0-7.6,6.2-13.8,13.8-13.8
			c0,0,0,0,0,0C246.7,67.8,252.9,74,252.9,81.6z"/>
		<path class="st8" d="M239.1,48.7c5.7,0,10.7-2,13.8-4.9c0.5,1.3,1,2.6,1.4,4c-3.3,3.3-8.9,5.4-15.3,5.4s-11.9-2.1-15.3-5.4
			c0.5-1.3,1-2.7,1.4-4C228.4,46.8,233.4,48.7,239.1,48.7z"/>
		<path class="st9" d="M252.9,43.8c-3.1,3-8.1,4.9-13.8,4.9s-10.7-2-13.8-4.9c2-5.1,4.5-10,7.6-14.5c0.5-0.7,0.9-1.3,1.4-1.9
			c2-2.7,5.8-3.2,8.5-1.2c0.4,0.3,0.8,0.7,1.2,1.2c0.5,0.6,0.9,1.2,1.4,1.9C248.4,33.8,250.9,38.7,252.9,43.8z"/>
		<path class="st10" d="M260.1,96.4c-0.3,15.3-1.2,25-3.6,31.2c-0.2,0.6-0.5,1.2-0.8,1.7c-3.1,6.2-8.3,7.9-16.6,7.9
			s-13.5-1.7-16.6-7.9c-0.3-0.6-0.5-1.1-0.8-1.8c-2.4-6.2-3.4-15.9-3.6-31.1c-0.1-3.4-0.1-7.1-0.1-11.1c-0.1-12.7,1.8-25.4,5.8-37.5
			c3.3,3.3,8.9,5.4,15.3,5.4s11.9-2.1,15.3-5.4c4,12.1,6,24.8,5.8,37.5C260.2,89.2,260.1,92.9,260.1,96.4z M252.9,81.6
			c0-7.6-6.2-13.8-13.8-13.8c-7.6,0-13.8,6.2-13.8,13.8c0,7.6,6.2,13.8,13.8,13.8c0,0,0,0,0,0C246.7,95.4,252.9,89.2,252.9,81.6
			L252.9,81.6z"/>
		<path class="st12" d="M139.2,246.1l18.4,0.4v0.7l-19.4-0.4v-0.7V246C138.4,246.1,138.6,246.1,139.2,246.1z"/>
		
			<linearGradient id="SVGID_6_" gradientUnits="userSpaceOnUse" x1="112.2357" y1="190.775" x2="112.2357" y2="101.005" gradientTransform="matrix(1 0 0 -1 0 264)">
			<stop  offset="0" style="stop-color:#81CFFF"/>
			<stop  offset="1" style="stop-color:#5ECFFF;stop-opacity:0"/>
		</linearGradient>
		<line class="st13" x1="112.2" y1="73.2" x2="112.2" y2="163"/>
		
			<linearGradient id="SVGID_7_" gradientUnits="userSpaceOnUse" x1="348.955" y1="195.605" x2="348.955" y2="105.835" gradientTransform="matrix(1 0 0 -1 0 264)">
			<stop  offset="0" style="stop-color:#81CFFF"/>
			<stop  offset="1" style="stop-color:#5ECFFF;stop-opacity:0"/>
		</linearGradient>
		<line class="st14" x1="349" y1="68.4" x2="349" y2="158.2"/>
		
			<linearGradient id="SVGID_8_" gradientUnits="userSpaceOnUse" x1="40.9" y1="120.12" x2="40.9" y2="64.49" gradientTransform="matrix(1 0 0 -1 0 264)">
			<stop  offset="0" style="stop-color:#81CFFF"/>
			<stop  offset="1" style="stop-color:#5ECFFF;stop-opacity:0"/>
		</linearGradient>
		<line class="st15" x1="40.9" y1="143.9" x2="40.9" y2="199.5"/>
		
			<linearGradient id="SVGID_9_" gradientUnits="userSpaceOnUse" x1="64.97" y1="168.64" x2="64.97" y2="140.83" gradientTransform="matrix(1 0 0 -1 0 264)">
			<stop  offset="0" style="stop-color:#81CFFF"/>
			<stop  offset="1" style="stop-color:#5ECFFF;stop-opacity:0"/>
		</linearGradient>
		<line class="st16" x1="65" y1="95.4" x2="65" y2="123.2"/>
		
			<linearGradient id="SVGID_10_" gradientUnits="userSpaceOnUse" x1="397.23" y1="159.8" x2="397.23" y2="131.98" gradientTransform="matrix(1 0 0 -1 0 264)">
			<stop  offset="0" style="stop-color:#81CFFF"/>
			<stop  offset="1" style="stop-color:#5ECFFF;stop-opacity:0"/>
		</linearGradient>
		<line class="st17" x1="397.2" y1="104.2" x2="397.2" y2="132"/>
		
			<linearGradient id="SVGID_11_" gradientUnits="userSpaceOnUse" x1="424.75" y1="130.51" x2="424.75" y2="74.87" gradientTransform="matrix(1 0 0 -1 0 264)">
			<stop  offset="0" style="stop-color:#81CFFF"/>
			<stop  offset="1" style="stop-color:#5ECFFF;stop-opacity:0"/>
		</linearGradient>
		<line class="st18" x1="424.8" y1="133.5" x2="424.8" y2="189.1"/>
	</g>
</g>
</svg>
